<svg xmlns="http://www.w3.org/2000/svg" xmlns:xlink="http://www.w3.org/1999/xlink" width="500" zoomAndPan="magnify" viewBox="0 0 375 374.999991" height="500" preserveAspectRatio="xMidYMid meet" version="1.0"><defs><g/></defs><g fill="#568ec8" fill-opacity="1"><g transform="translate(200.521895, 215.446891)"><g><path d="M 21.804688 -19.199219 C 21.585938 -19.199219 21.1875 -19.179688 17.667969 -15.320312 C 15.519531 -12.953125 12.851562 -9.847656 10.167969 -6.605469 C 9.648438 -5.988281 8.875 -5.035156 7.957031 -3.898438 C 7.660156 -4.972656 7.339844 -6.027344 7.042969 -7.082031 C 4.675781 -15.320312 4.136719 -16.773438 3.402344 -16.8125 C 3.300781 -16.8125 3.023438 -16.792969 2.863281 -16.394531 C 2.785156 -16.195312 2.886719 -15.976562 3.0625 -15.898438 C 3.183594 -15.855469 3.300781 -15.875 3.402344 -15.917969 C 3.980469 -14.960938 5.210938 -10.683594 6.308594 -6.863281 C 6.664062 -5.648438 7.023438 -4.417969 7.382812 -3.164062 C 3.9375 1.132812 -1.015625 7.558594 -2.308594 10.585938 C -2.6875 11.5 -2.726562 12.058594 -2.445312 12.394531 C -2.289062 12.574219 -2.089844 12.652344 -1.832031 12.652344 C -1.710938 12.652344 -1.570312 12.632812 -1.433594 12.59375 C -1.234375 12.554688 -1.113281 12.335938 -1.152344 12.136719 C -1.214844 11.9375 -1.414062 11.796875 -1.613281 11.859375 C -1.75 11.898438 -1.832031 11.898438 -1.871094 11.878906 C -1.871094 11.816406 -1.890625 11.617188 -1.671875 11.082031 C -0.835938 8.953125 2.566406 4.078125 7.640625 -2.289062 C 7.660156 -2.25 7.660156 -2.207031 7.679688 -2.167969 C 10.324219 6.703125 11.917969 8.019531 12.992188 8.195312 C 13.109375 8.21875 13.210938 8.21875 13.308594 8.21875 C 13.6875 8.21875 14.007812 8.097656 14.285156 7.878906 C 14.820312 7.441406 15.121094 6.585938 15.199219 5.292969 C 15.199219 5.09375 15.042969 4.894531 14.84375 4.894531 C 14.625 4.875 14.445312 5.035156 14.425781 5.253906 C 14.363281 6.566406 14.046875 7.082031 13.808594 7.28125 C 13.628906 7.421875 13.410156 7.480469 13.109375 7.441406 C 12.277344 7.300781 10.761719 5.492188 8.414062 -2.386719 C 8.355469 -2.585938 8.296875 -2.804688 8.238281 -3.003906 C 8.914062 -3.859375 9.628906 -4.734375 10.367188 -5.628906 C 16.253906 -12.8125 21.148438 -18.125 21.90625 -18.441406 C 22.085938 -18.484375 22.222656 -18.640625 22.222656 -18.839844 C 22.203125 -19.058594 22.023438 -19.21875 21.804688 -19.199219 Z M 21.804688 -19.199219 "/></g></g></g><g fill="#568ec8" fill-opacity="1"><g transform="translate(217.579591, 219.643627)"><g><path d="M 13.058594 -6.933594 C 12.777344 -7.058594 12.402344 -6.933594 12.277344 -6.652344 C 9.902344 -1.8125 8.121094 -0.28125 7.277344 -0.4375 C 6.933594 -0.5 5.808594 -1.15625 5.527344 -6.621094 C 5.527344 -6.871094 5.339844 -7.089844 5.121094 -7.152344 C 4.875 -7.214844 4.59375 -7.152344 4.46875 -6.933594 C 4.28125 -6.714844 4.09375 -6.464844 3.90625 -6.183594 C 3.125 -5.121094 2.09375 -3.6875 0.84375 -2.34375 C 0.65625 -2.125 0.5 -2 0.40625 -1.9375 C 0.1875 -3.03125 1.34375 -7.214844 3.1875 -8.527344 C 3.71875 -8.902344 4.4375 -9.183594 5.402344 -8.058594 C 5.621094 -7.808594 5.996094 -7.777344 6.246094 -7.996094 C 6.496094 -8.183594 6.527344 -8.589844 6.339844 -8.839844 C 5.152344 -10.214844 4.03125 -10.183594 3.28125 -9.933594 C 0.875 -9.089844 -0.75 -4.46875 -0.8125 -2.34375 C -0.84375 -1.46875 -0.59375 -0.90625 -0.09375 -0.71875 C 0.6875 -0.40625 1.46875 -1.25 1.71875 -1.53125 C 2.78125 -2.6875 3.75 -3.9375 4.4375 -4.902344 C 4.78125 -1.34375 5.621094 0.4375 7.027344 0.75 C 7.152344 0.75 7.277344 0.78125 7.402344 0.78125 C 9.527344 0.78125 11.808594 -2.9375 13.339844 -6.121094 C 13.496094 -6.433594 13.371094 -6.777344 13.058594 -6.933594 Z M 13.058594 -6.933594 "/></g></g></g><g fill="#568ec8" fill-opacity="1"><g transform="translate(229.197302, 219.643627)"><g><path d="M 15.679688 -6.808594 C 15.429688 -7.027344 15.054688 -6.996094 14.835938 -6.746094 C 13.558594 -5.246094 11.839844 -4.5 10.433594 -4.875 C 9.277344 -5.183594 8.433594 -6.308594 8.121094 -7.996094 C 8.058594 -8.277344 7.777344 -8.464844 7.496094 -8.464844 C 7.214844 -8.464844 6.964844 -8.246094 6.933594 -7.964844 C 6.277344 -3.28125 2.5625 2.3125 0.78125 2.90625 C 0.5625 2.96875 0.5 2.9375 0.5 2.90625 C 0.34375 2.78125 -0.71875 1.3125 2.59375 -8.527344 C 2.6875 -8.839844 2.53125 -9.183594 2.21875 -9.277344 C 1.90625 -9.402344 1.5625 -9.214844 1.4375 -8.902344 C -2.1875 1.9375 -0.8125 3.3125 -0.375 3.75 C -0.1875 3.90625 0.125 4.15625 0.59375 4.15625 C 0.75 4.15625 0.9375 4.125 1.15625 4.03125 C 2.3125 3.65625 3.875 2 5.277344 -0.34375 C 6.339844 -2.09375 7.152344 -3.96875 7.652344 -5.714844 C 8.246094 -4.6875 9.089844 -4 10.121094 -3.71875 C 11.964844 -3.25 14.152344 -4.125 15.742188 -5.964844 C 15.960938 -6.214844 15.929688 -6.589844 15.679688 -6.808594 Z M 15.679688 -6.808594 "/></g></g></g><g fill="#568ec8" fill-opacity="1"><g transform="translate(243.938048, 219.643627)"><g><path d="M 9.121094 -7.089844 C 8.839844 -7.277344 8.496094 -7.183594 8.308594 -6.902344 C 6.214844 -3.53125 2.71875 -0.34375 1.65625 -0.78125 C 1.53125 -0.84375 0.53125 -1.4375 1.90625 -6.714844 C 1.96875 -7.058594 1.78125 -7.371094 1.46875 -7.464844 C 1.125 -7.527344 0.8125 -7.339844 0.71875 -7.027344 C -0.40625 -2.625 -0.25 -0.28125 1.15625 0.3125 C 1.375 0.40625 1.59375 0.4375 1.8125 0.4375 C 4.15625 0.4375 7.746094 -3.75 9.339844 -6.277344 C 9.496094 -6.558594 9.402344 -6.933594 9.121094 -7.089844 Z M 1.75 -9.621094 C 3.34375 -9.527344 3.3125 -11.527344 2.03125 -11.089844 C 1.375 -10.902344 0.53125 -9.683594 1.75 -9.621094 Z M 1.75 -9.621094 "/></g></g></g><g fill="#568ec8" fill-opacity="1"><g transform="translate(251.839336, 219.643627)"><g><path d="M 10.558594 -6.964844 C 10.277344 -7.152344 9.902344 -7.089844 9.714844 -6.808594 C 7.371094 -3.53125 5.464844 -1.46875 3.59375 -0.125 C 2.65625 0.53125 1.75 0.65625 1.15625 0.21875 C 0.78125 -0.0625 -0.375 -1.3125 0.96875 -5.683594 C 4 -8.183594 5.652344 -10.558594 5.214844 -11.808594 C 5.058594 -12.183594 4.6875 -12.433594 4.28125 -12.433594 C 3.03125 -12.402344 1.125 -10.246094 -0.125 -6.214844 C -1.65625 -1.25 -0.40625 0.5625 0.46875 1.1875 C 0.90625 1.53125 1.40625 1.6875 1.96875 1.6875 C 2.6875 1.6875 3.5 1.40625 4.28125 0.84375 C 6.277344 -0.59375 8.246094 -2.71875 10.683594 -6.121094 C 10.871094 -6.402344 10.808594 -6.777344 10.558594 -6.964844 Z M 4.03125 -11.121094 C 3.90625 -10.621094 3.375 -9.621094 1.90625 -8.121094 C 2.71875 -9.933594 3.59375 -10.808594 4.03125 -11.121094 Z M 4.03125 -11.121094 "/></g></g></g><g fill="#568ec8" fill-opacity="1"><g transform="translate(260.927377, 219.643627)"><g><path d="M 13.714844 -7.058594 C 13.402344 -7.214844 13.027344 -7.089844 12.902344 -6.777344 C 9.308594 0.78125 5.902344 4.65625 5.152344 4.53125 C 5.089844 4.5 4 3.4375 7.527344 -7.402344 C 7.621094 -7.683594 7.839844 -8.339844 7.339844 -8.683594 C 6.871094 -9.058594 6.339844 -8.714844 5.464844 -8.121094 C 4.53125 -7.527344 3.25 -6.683594 2.25 -6.808594 C 5.433594 -12.308594 5.121094 -13.527344 4.40625 -13.996094 C 3.28125 -14.648438 1.65625 -12.746094 0.90625 -11.652344 C -0.625 -9.277344 -0.59375 -7.121094 1.03125 -6.027344 C 2.6875 -4.875 4.84375 -6.277344 6.121094 -7.121094 C 6.152344 -7.152344 6.152344 -7.152344 6.183594 -7.183594 C 4.964844 -3.34375 4.1875 -0.3125 3.90625 1.78125 C 3.5625 4.09375 3.8125 5.308594 4.6875 5.652344 C 4.84375 5.683594 4.964844 5.714844 5.121094 5.714844 C 7.621094 5.714844 11.964844 -1.96875 13.996094 -6.246094 C 14.121094 -6.558594 13.996094 -6.933594 13.714844 -7.058594 Z M 1.09375 -9.214844 C 1.53125 -10.902344 3 -12.464844 3.65625 -12.839844 C 3.59375 -12.339844 3.25 -10.933594 1.25 -7.464844 C 1.03125 -7.808594 0.875 -8.339844 1.09375 -9.214844 Z M 1.09375 -9.214844 "/></g></g></g><g fill="#568ec8" fill-opacity="1"><g transform="translate(73.235358, 224.064994)"><g><path d="M 148.390625 -82.75 C 148.523438 -82.96875 148.742188 -83.085938 149.046875 -83.109375 C 149.347656 -83.128906 149.570312 -83.019531 149.71875 -82.78125 C 149.863281 -82.539062 149.796875 -82.164062 149.515625 -81.65625 C 144.148438 -73.007812 138.859375 -64.789062 133.640625 -57 C 131.597656 -53.875 130.007812 -50.859375 128.875 -47.953125 C 127.738281 -45.054688 127.09375 -42.8125 126.9375 -41.21875 C 125.457031 -26.320312 124.140625 -12.226562 122.984375 1.0625 C 122.878906 2.34375 122.546875 3.316406 121.984375 3.984375 C 121.867188 4.109375 121.722656 4.21875 121.546875 4.3125 C 121.492188 4.382812 121.425781 4.429688 121.34375 4.453125 C 121.300781 4.472656 121.269531 4.488281 121.25 4.5 C 121.207031 4.507812 121.1875 4.515625 121.1875 4.515625 C 121.070312 4.585938 120.9375 4.632812 120.78125 4.65625 C 120.75 4.664062 120.71875 4.675781 120.6875 4.6875 C 120.6875 4.6875 120.664062 4.691406 120.625 4.703125 C 120.625 4.703125 120.601562 4.710938 120.5625 4.734375 C 120.300781 4.773438 120.085938 4.765625 119.921875 4.703125 C 119.597656 4.566406 119.375 4.300781 119.25 3.90625 C 119.132812 3.507812 119.015625 3.015625 118.890625 2.421875 C 117.347656 -5.921875 115.207031 -14.847656 112.46875 -24.359375 C 112.164062 -25.222656 111.78125 -25.523438 111.3125 -25.265625 C 110.84375 -25.003906 110.375 -24.535156 109.90625 -23.859375 C 102.945312 -14.960938 96.53125 -7.566406 90.65625 -1.671875 C 80.582031 8.367188 71.660156 14.75 63.890625 17.46875 C 60.085938 18.789062 56.59375 19.234375 53.40625 18.796875 C 51.300781 18.492188 49.378906 17.828125 47.640625 16.796875 C 46.898438 16.484375 46.3125 16.503906 45.875 16.859375 C 45.4375 17.210938 45.066406 17.691406 44.765625 18.296875 C 44.734375 18.304688 44.71875 18.3125 44.71875 18.3125 C 39.320312 27.84375 35 34.4375 31.75 38.09375 C 28.507812 41.757812 25.53125 44.066406 22.8125 45.015625 C 21.175781 45.742188 19.523438 45.757812 17.859375 45.0625 C 16.203125 44.375 15.078125 42.40625 14.484375 39.15625 C 14.359375 38.195312 14.550781 37.273438 15.0625 36.390625 C 15.570312 35.503906 16.253906 34.863281 17.109375 34.46875 C 17.960938 34.050781 18.644531 33.96875 19.15625 34.21875 C 19.664062 34.476562 19.878906 35.273438 19.796875 36.609375 C 19.703125 37.890625 19.753906 39.050781 19.953125 40.09375 C 20.148438 41.132812 20.535156 41.757812 21.109375 41.96875 C 22.765625 42.519531 24.492188 42.257812 26.296875 41.1875 C 28.097656 40.125 30.269531 37.78125 32.8125 34.15625 C 35.363281 30.539062 38.609375 25.203125 42.546875 18.140625 C 43.160156 17.054688 43.539062 16.179688 43.6875 15.515625 C 43.832031 14.859375 43.851562 14.347656 43.75 13.984375 C 43.644531 13.628906 43.472656 13.347656 43.234375 13.140625 C 43.234375 13.140625 43.226562 13.125 43.21875 13.09375 C 37.507812 6.4375 34.671875 -4.742188 34.703125 -20.453125 C 34.804688 -29.671875 35.9375 -39.226562 38.09375 -49.125 C 40.257812 -59.03125 43.304688 -68.023438 47.234375 -76.109375 C 51.171875 -84.203125 55.847656 -90.117188 61.265625 -93.859375 C 64.109375 -95.890625 67.457031 -96.703125 71.3125 -96.296875 C 75.164062 -95.890625 79.507812 -93.128906 84.34375 -88.015625 C 84.363281 -87.972656 84.378906 -87.9375 84.390625 -87.90625 C 84.523438 -87.78125 84.65625 -87.65625 84.78125 -87.53125 C 84.914062 -87.375 85.0625 -87.195312 85.21875 -87 C 86.332031 -85.71875 87.425781 -84.367188 88.5 -82.953125 C 88.851562 -82.535156 89.160156 -82.335938 89.421875 -82.359375 C 89.679688 -82.390625 89.898438 -82.539062 90.078125 -82.8125 C 90.253906 -83.082031 90.414062 -83.367188 90.5625 -83.671875 C 98.914062 -103.523438 107.929688 -125.460938 117.609375 -149.484375 C 120.785156 -157.484375 123.382812 -164.28125 125.40625 -169.875 C 127.113281 -174.539062 128.617188 -178.460938 129.921875 -181.640625 C 131.273438 -184.960938 132.613281 -187.6875 133.9375 -189.8125 C 135.269531 -191.9375 136.757812 -192.957031 138.40625 -192.875 C 140.625 -192.863281 141.703125 -190.613281 141.640625 -186.125 C 141.585938 -181.632812 140.859375 -173.800781 139.453125 -162.625 C 139.140625 -159.84375 138.78125 -156.8125 138.375 -153.53125 C 138.113281 -151.269531 137.003906 -140.726562 135.046875 -121.90625 C 133.085938 -103.082031 130.863281 -81.148438 128.375 -56.109375 C 128.289062 -55.023438 128.382812 -54.394531 128.65625 -54.21875 C 128.925781 -54.050781 129.273438 -54.160156 129.703125 -54.546875 C 130.128906 -54.929688 130.539062 -55.394531 130.9375 -55.9375 C 136.425781 -63.988281 142.242188 -72.925781 148.390625 -82.75 Z M 45.78125 9.5 C 46.414062 10.351562 47.128906 10 47.921875 8.4375 C 49.203125 6.019531 50.570312 3.429688 52.03125 0.671875 C 61.875 -18.242188 73.363281 -43.128906 86.5 -73.984375 C 87.34375 -75.984375 87.78125 -77.445312 87.8125 -78.375 C 87.84375 -79.3125 87.707031 -79.984375 87.40625 -80.390625 C 86.625 -81.398438 85.859375 -82.382812 85.109375 -83.34375 C 84.546875 -84.007812 83.960938 -84.675781 83.359375 -85.34375 C 82.660156 -86.144531 81.921875 -86.875 81.140625 -87.53125 C 78.273438 -89.988281 75.34375 -91.414062 72.34375 -91.8125 C 69.351562 -92.207031 66.597656 -91.59375 64.078125 -89.96875 C 60.085938 -87.144531 56.175781 -81.878906 52.34375 -74.171875 C 48.507812 -66.460938 45.300781 -57.660156 42.71875 -47.765625 C 40.144531 -37.867188 38.773438 -28.257812 38.609375 -18.9375 C 38.503906 -15.269531 38.921875 -10.6875 39.859375 -5.1875 C 40.796875 0.3125 42.769531 5.207031 45.78125 9.5 Z M 108.46875 -25.296875 C 109.695312 -26.898438 110.367188 -28.226562 110.484375 -29.28125 C 110.597656 -30.34375 110.535156 -31.148438 110.296875 -31.703125 C 107.785156 -39.585938 104.910156 -47.265625 101.671875 -54.734375 C 98.441406 -62.203125 94.875 -69.015625 90.96875 -75.171875 C 90.65625 -75.609375 90.378906 -75.710938 90.140625 -75.484375 C 89.910156 -75.253906 89.691406 -74.894531 89.484375 -74.40625 C 75.773438 -42.769531 63.816406 -17.238281 53.609375 2.1875 C 52.265625 4.78125 50.96875 7.210938 49.71875 9.484375 C 49.289062 10.316406 49.035156 10.972656 48.953125 11.453125 C 48.878906 11.941406 48.914062 12.328125 49.0625 12.609375 C 49.207031 12.898438 49.359375 13.097656 49.515625 13.203125 C 51.316406 14.578125 53.488281 15.484375 56.03125 15.921875 C 58.414062 16.421875 61.914062 15.625 66.53125 13.53125 C 71.15625 11.445312 76.945312 7.34375 83.90625 1.21875 C 90.875 -4.894531 99.0625 -13.734375 108.46875 -25.296875 Z M 112.265625 -33.203125 C 112.503906 -32.492188 112.878906 -32.195312 113.390625 -32.3125 C 113.898438 -32.425781 114.398438 -32.800781 114.890625 -33.4375 C 116.640625 -35.707031 118.410156 -38.101562 120.203125 -40.625 C 121.921875 -43.09375 123.019531 -45.253906 123.5 -47.109375 C 123.976562 -48.972656 124.210938 -50.34375 124.203125 -51.21875 C 126.179688 -77.570312 128.09375 -100.503906 129.9375 -120.015625 C 131.78125 -139.535156 132.847656 -150.457031 133.140625 -152.78125 C 133.660156 -156.882812 134.171875 -161.296875 134.671875 -166.015625 C 135.171875 -170.742188 135.5 -174.816406 135.65625 -178.234375 C 135.8125 -181.660156 135.625 -183.441406 135.09375 -183.578125 C 134.488281 -183.617188 133.570312 -182.171875 132.34375 -179.234375 C 131.113281 -176.296875 129.5 -172.179688 127.5 -166.890625 C 125.425781 -161.367188 122.921875 -154.921875 119.984375 -147.546875 C 110.460938 -123.984375 101.539062 -102.492188 93.21875 -83.078125 C 92.519531 -81.347656 92.160156 -80.039062 92.140625 -79.15625 C 92.128906 -78.269531 92.222656 -77.691406 92.421875 -77.421875 C 92.421875 -77.421875 92.429688 -77.40625 92.453125 -77.375 C 96.660156 -70.957031 100.410156 -63.960938 103.703125 -56.390625 C 106.992188 -48.816406 109.835938 -41.109375 112.234375 -33.265625 C 112.234375 -33.265625 112.242188 -33.242188 112.265625 -33.203125 Z M 121.125 -0.90625 C 121.6875 -13.007812 122.410156 -25.4375 123.296875 -38.1875 C 123.367188 -39.332031 123.285156 -40 123.046875 -40.1875 C 122.804688 -40.375 122.503906 -40.296875 122.140625 -39.953125 C 121.773438 -39.617188 121.429688 -39.207031 121.109375 -38.71875 C 121.109375 -38.71875 121.085938 -38.710938 121.046875 -38.703125 C 119.515625 -36.546875 118.003906 -34.4375 116.515625 -32.375 C 115.296875 -30.695312 114.609375 -29.304688 114.453125 -28.203125 C 114.296875 -27.097656 114.300781 -26.304688 114.46875 -25.828125 C 117 -16.816406 119.015625 -8.414062 120.515625 -0.625 C 120.523438 -0.46875 120.578125 -0.34375 120.671875 -0.25 C 120.773438 -0.15625 120.863281 -0.144531 120.9375 -0.21875 C 121.007812 -0.289062 121.078125 -0.5 121.140625 -0.84375 C 121.128906 -0.882812 121.125 -0.90625 121.125 -0.90625 Z M 121.125 -0.90625 "/></g></g></g><g fill="#ffffff" fill-opacity="1"><g transform="translate(160.152752, 256.292319)"><g><path d="M 8.6875 -8.78125 L 8.6875 0 L 8.15625 0 L 2.171875 -7.625 L 2.171875 0 L 1.53125 0 L 1.53125 -8.78125 L 2.0625 -8.78125 L 8.046875 -1.15625 L 8.046875 -8.78125 Z M 8.6875 -8.78125 "/></g></g></g><g fill="#ffffff" fill-opacity="1"><g transform="translate(170.361398, 256.292319)"><g><path d="M 4.96875 0.0625 C 3.851562 0.0625 2.988281 -0.257812 2.375 -0.90625 C 1.757812 -1.550781 1.453125 -2.488281 1.453125 -3.71875 L 1.453125 -8.78125 L 2.09375 -8.78125 L 2.09375 -3.75 C 2.09375 -2.675781 2.335938 -1.867188 2.828125 -1.328125 C 3.328125 -0.796875 4.046875 -0.53125 4.984375 -0.53125 C 5.910156 -0.53125 6.617188 -0.796875 7.109375 -1.328125 C 7.609375 -1.867188 7.859375 -2.675781 7.859375 -3.75 L 7.859375 -8.78125 L 8.5 -8.78125 L 8.5 -3.71875 C 8.5 -2.488281 8.1875 -1.550781 7.5625 -0.90625 C 6.945312 -0.257812 6.082031 0.0625 4.96875 0.0625 Z M 4.96875 0.0625 "/></g></g></g><g fill="#ffffff" fill-opacity="1"><g transform="translate(180.306678, 256.292319)"><g><path d="M 3.21875 -8.203125 L 0.046875 -8.203125 L 0.046875 -8.78125 L 7.015625 -8.78125 L 7.015625 -8.203125 L 3.859375 -8.203125 L 3.859375 0 L 3.21875 0 Z M 3.21875 -8.203125 "/></g></g></g><g fill="#ffffff" fill-opacity="1"><g transform="translate(187.367446, 256.292319)"><g><path d="M 7.625 0 L 5.53125 -2.9375 C 5.21875 -2.894531 4.9375 -2.875 4.6875 -2.875 L 2.171875 -2.875 L 2.171875 0 L 1.53125 0 L 1.53125 -8.78125 L 4.6875 -8.78125 C 5.789062 -8.78125 6.65625 -8.519531 7.28125 -8 C 7.90625 -7.476562 8.21875 -6.753906 8.21875 -5.828125 C 8.21875 -5.128906 8.039062 -4.539062 7.6875 -4.0625 C 7.332031 -3.59375 6.820312 -3.265625 6.15625 -3.078125 L 8.359375 0 Z M 4.6875 -3.4375 C 5.613281 -3.4375 6.320312 -3.644531 6.8125 -4.0625 C 7.3125 -4.476562 7.5625 -5.066406 7.5625 -5.828125 C 7.5625 -6.585938 7.3125 -7.171875 6.8125 -7.578125 C 6.320312 -7.992188 5.613281 -8.203125 4.6875 -8.203125 L 2.171875 -8.203125 L 2.171875 -3.4375 Z M 4.6875 -3.4375 "/></g></g></g><g fill="#ffffff" fill-opacity="1"><g transform="translate(196.397208, 256.292319)"><g><path d="M 1.53125 -8.78125 L 2.171875 -8.78125 L 2.171875 0 L 1.53125 0 Z M 1.53125 -8.78125 "/></g></g></g><g fill="#ffffff" fill-opacity="1"><g transform="translate(200.096901, 256.292319)"><g><path d="M 5.25 0.0625 C 4.382812 0.0625 3.601562 -0.128906 2.90625 -0.515625 C 2.21875 -0.898438 1.675781 -1.429688 1.28125 -2.109375 C 0.882812 -2.785156 0.6875 -3.546875 0.6875 -4.390625 C 0.6875 -5.234375 0.882812 -5.992188 1.28125 -6.671875 C 1.675781 -7.347656 2.21875 -7.878906 2.90625 -8.265625 C 3.601562 -8.648438 4.382812 -8.84375 5.25 -8.84375 C 5.882812 -8.84375 6.46875 -8.738281 7 -8.53125 C 7.53125 -8.332031 7.988281 -8.03125 8.375 -7.625 L 7.96875 -7.21875 C 7.257812 -7.90625 6.359375 -8.25 5.265625 -8.25 C 4.535156 -8.25 3.867188 -8.082031 3.265625 -7.75 C 2.660156 -7.414062 2.1875 -6.953125 1.84375 -6.359375 C 1.5 -5.773438 1.328125 -5.117188 1.328125 -4.390625 C 1.328125 -3.660156 1.5 -3 1.84375 -2.40625 C 2.1875 -1.820312 2.660156 -1.363281 3.265625 -1.03125 C 3.867188 -0.695312 4.535156 -0.53125 5.265625 -0.53125 C 6.359375 -0.53125 7.257812 -0.878906 7.96875 -1.578125 L 8.375 -1.171875 C 7.988281 -0.765625 7.523438 -0.457031 6.984375 -0.25 C 6.453125 -0.0390625 5.875 0.0625 5.25 0.0625 Z M 5.25 0.0625 "/></g></g></g><g fill="#ffffff" fill-opacity="1"><g transform="translate(209.076493, 256.292319)"><g><path d="M 1.53125 -8.78125 L 2.171875 -8.78125 L 2.171875 0 L 1.53125 0 Z M 1.53125 -8.78125 "/></g></g></g><g fill="#ffffff" fill-opacity="1"><g transform="translate(212.776186, 256.292319)"><g><path d="M 5.25 0.0625 C 4.394531 0.0625 3.617188 -0.128906 2.921875 -0.515625 C 2.222656 -0.910156 1.675781 -1.445312 1.28125 -2.125 C 0.882812 -2.800781 0.6875 -3.554688 0.6875 -4.390625 C 0.6875 -5.222656 0.882812 -5.976562 1.28125 -6.65625 C 1.675781 -7.332031 2.222656 -7.863281 2.921875 -8.25 C 3.617188 -8.644531 4.394531 -8.84375 5.25 -8.84375 C 6.113281 -8.84375 6.890625 -8.648438 7.578125 -8.265625 C 8.273438 -7.878906 8.820312 -7.347656 9.21875 -6.671875 C 9.625 -5.992188 9.828125 -5.234375 9.828125 -4.390625 C 9.828125 -3.546875 9.625 -2.785156 9.21875 -2.109375 C 8.820312 -1.429688 8.273438 -0.898438 7.578125 -0.515625 C 6.890625 -0.128906 6.113281 0.0625 5.25 0.0625 Z M 5.25 -0.53125 C 5.988281 -0.53125 6.65625 -0.695312 7.25 -1.03125 C 7.84375 -1.363281 8.3125 -1.820312 8.65625 -2.40625 C 9 -3 9.171875 -3.660156 9.171875 -4.390625 C 9.171875 -5.117188 9 -5.773438 8.65625 -6.359375 C 8.3125 -6.953125 7.84375 -7.414062 7.25 -7.75 C 6.65625 -8.082031 5.988281 -8.25 5.25 -8.25 C 4.519531 -8.25 3.851562 -8.082031 3.25 -7.75 C 2.65625 -7.414062 2.1875 -6.953125 1.84375 -6.359375 C 1.5 -5.773438 1.328125 -5.117188 1.328125 -4.390625 C 1.328125 -3.660156 1.5 -3 1.84375 -2.40625 C 2.1875 -1.820312 2.65625 -1.363281 3.25 -1.03125 C 3.851562 -0.695312 4.519531 -0.53125 5.25 -0.53125 Z M 5.25 -0.53125 "/></g></g></g><g fill="#ffffff" fill-opacity="1"><g transform="translate(223.285832, 256.292319)"><g><path d="M 8.6875 -8.78125 L 8.6875 0 L 8.15625 0 L 2.171875 -7.625 L 2.171875 0 L 1.53125 0 L 1.53125 -8.78125 L 2.0625 -8.78125 L 8.046875 -1.15625 L 8.046875 -8.78125 Z M 8.6875 -8.78125 "/></g></g></g><g fill="#ffffff" fill-opacity="1"><g transform="translate(233.494477, 256.292319)"><g><path d="M 1.53125 -8.78125 L 2.171875 -8.78125 L 2.171875 0 L 1.53125 0 Z M 1.53125 -8.78125 "/></g></g></g><g fill="#ffffff" fill-opacity="1"><g transform="translate(237.194171, 256.292319)"><g><path d="M 3.84375 0.0625 C 3.195312 0.0625 2.582031 -0.046875 2 -0.265625 C 1.414062 -0.492188 0.960938 -0.78125 0.640625 -1.125 L 0.921875 -1.609375 C 1.234375 -1.273438 1.648438 -1.003906 2.171875 -0.796875 C 2.703125 -0.597656 3.253906 -0.5 3.828125 -0.5 C 4.660156 -0.5 5.289062 -0.65625 5.71875 -0.96875 C 6.144531 -1.289062 6.359375 -1.707031 6.359375 -2.21875 C 6.359375 -2.613281 6.242188 -2.925781 6.015625 -3.15625 C 5.796875 -3.394531 5.519531 -3.578125 5.1875 -3.703125 C 4.851562 -3.828125 4.398438 -3.957031 3.828125 -4.09375 C 3.179688 -4.25 2.660156 -4.398438 2.265625 -4.546875 C 1.878906 -4.703125 1.550781 -4.9375 1.28125 -5.25 C 1.007812 -5.5625 0.875 -5.984375 0.875 -6.515625 C 0.875 -6.941406 0.988281 -7.332031 1.21875 -7.6875 C 1.445312 -8.039062 1.789062 -8.320312 2.25 -8.53125 C 2.71875 -8.738281 3.296875 -8.84375 3.984375 -8.84375 C 4.472656 -8.84375 4.953125 -8.769531 5.421875 -8.625 C 5.890625 -8.488281 6.296875 -8.300781 6.640625 -8.0625 L 6.40625 -7.546875 C 6.050781 -7.785156 5.660156 -7.96875 5.234375 -8.09375 C 4.816406 -8.21875 4.398438 -8.28125 3.984375 -8.28125 C 3.171875 -8.28125 2.554688 -8.113281 2.140625 -7.78125 C 1.722656 -7.457031 1.515625 -7.039062 1.515625 -6.53125 C 1.515625 -6.132812 1.628906 -5.816406 1.859375 -5.578125 C 2.085938 -5.347656 2.367188 -5.171875 2.703125 -5.046875 C 3.035156 -4.921875 3.488281 -4.785156 4.0625 -4.640625 C 4.707031 -4.484375 5.222656 -4.328125 5.609375 -4.171875 C 5.992188 -4.023438 6.320312 -3.796875 6.59375 -3.484375 C 6.863281 -3.179688 7 -2.773438 7 -2.265625 C 7 -1.835938 6.882812 -1.445312 6.65625 -1.09375 C 6.425781 -0.738281 6.070312 -0.457031 5.59375 -0.25 C 5.113281 -0.0390625 4.53125 0.0625 3.84375 0.0625 Z M 3.84375 0.0625 "/></g></g></g><g fill="#ffffff" fill-opacity="1"><g transform="translate(244.831837, 256.292319)"><g><path d="M 3.21875 -8.203125 L 0.046875 -8.203125 L 0.046875 -8.78125 L 7.015625 -8.78125 L 7.015625 -8.203125 L 3.859375 -8.203125 L 3.859375 0 L 3.21875 0 Z M 3.21875 -8.203125 "/></g></g></g><g fill="#ffffff" fill-opacity="1"><g transform="translate(251.892604, 256.292319)"><g><path d="M 6.96875 -2.46875 L 1.875 -2.46875 L 0.75 0 L 0.0625 0 L 4.109375 -8.78125 L 4.75 -8.78125 L 8.78125 0 L 8.09375 0 Z M 6.71875 -3.015625 L 4.421875 -8.078125 L 2.125 -3.015625 Z M 6.71875 -3.015625 "/></g></g></g></svg>