<svg xmlns="http://www.w3.org/2000/svg" xmlns:xlink="http://www.w3.org/1999/xlink" width="500" zoomAndPan="magnify" viewBox="0 0 375 374.999991" height="500" preserveAspectRatio="xMidYMid meet" version="1.0"><defs><g/><clipPath id="c36043b262"><path d="M 108 37 L 294 37 L 294 222 L 108 222 Z M 108 37 " clip-rule="nonzero"/></clipPath><clipPath id="f0d71a175c"><path d="M 282.847656 -15.441406 L 302.328125 216.996094 L 55.695312 237.667969 L 36.214844 5.230469 Z M 282.847656 -15.441406 " clip-rule="nonzero"/></clipPath><clipPath id="9ade16c00f"><path d="M 282.847656 -15.441406 L 302.328125 216.996094 L 55.695312 237.667969 L 36.214844 5.230469 Z M 282.847656 -15.441406 " clip-rule="nonzero"/></clipPath><clipPath id="e7bc5936d4"><path d="M 125 89 L 219 89 L 219 211.242188 L 125 211.242188 Z M 125 89 " clip-rule="nonzero"/></clipPath></defs><g clip-path="url(#c36043b262)"><g clip-path="url(#f0d71a175c)"><g clip-path="url(#9ade16c00f)"><path fill="#33145e" d="M 140.121094 182.503906 C 150.585938 194.195312 163.085938 204.011719 176.710938 211.796875 C 190.234375 219.53125 206.886719 225.292969 221.125 218.972656 C 229.726562 215.15625 235.992188 207.503906 243.996094 202.554688 C 256.265625 194.964844 272.484375 193.753906 282.363281 183.238281 C 289.558594 175.578125 291.765625 164.582031 292.992188 154.144531 C 294.664062 139.949219 294.484375 123.875 284.589844 113.5625 C 275.417969 104.007812 260.953125 102.527344 248.660156 97.59375 C 233.5 91.507812 231.464844 80.453125 226.53125 67.042969 C 198.800781 -8.386719 42.21875 73.121094 140.121094 182.503906 " fill-opacity="1" fill-rule="nonzero"/></g></g></g><path fill="#ffffff" d="M 265.964844 116.085938 C 264.257812 127.519531 251.222656 131.800781 242.371094 136.253906 C 235.75 139 233.875 139.265625 227.382812 140.742188 C 235.203125 145.765625 235.996094 154.851562 231.855469 158.992188 C 226.3125 164.8125 215.679688 163.136719 211.925781 156.757812 C 211.367188 156.011719 213.417969 155.828125 214.347656 156.199219 C 223.144531 159.367188 231.527344 151.636719 224.777344 143.535156 C 218.160156 136.917969 221.6875 138.511719 237.179688 131.386719 C 249.828125 125.578125 257.824219 122.167969 259.230469 113.550781 C 261.183594 100.855469 226.746094 107.855469 209.757812 135.257812 C 209.492188 135.691406 208.828125 135.351562 209.019531 134.882812 C 221.589844 103.808594 264.75 94.714844 265.964844 116.085938 " fill-opacity="1" fill-rule="nonzero"/><g clip-path="url(#e7bc5936d4)"><path fill="#ffffff" d="M 165.316406 144.898438 C 165.167969 145.210938 164.867188 145.210938 164.621094 145.207031 C 163.714844 145.191406 162.796875 145.222656 161.90625 145.078125 C 149.847656 142.226562 135.757812 137.289062 129.113281 126.269531 C 127.304688 123.277344 126.152344 119.972656 126 116.523438 C 124.527344 83.441406 187.65625 76.179688 200.570312 120.304688 C 202.242188 126.027344 202.683594 130.402344 202.855469 131.136719 C 203.417969 130.488281 213.109375 110.171875 210.765625 102.984375 C 209.878906 100.328125 208.945312 98.09375 207.269531 95.671875 C 203.410156 88.917969 223.546875 85.101562 217.421875 107.085938 C 213.003906 121.828125 212.21875 121.761719 203.6875 137.535156 C 203.6875 137.535156 207.542969 169.585938 179.929688 207.78125 C 178.441406 209.839844 177.675781 210.933594 176.234375 211.238281 C 175.015625 211.496094 174.21875 210.703125 175.675781 209.390625 C 187.070312 199.136719 200.421875 168.917969 200.421875 142.988281 C 200.40625 143.003906 173.617188 182.195312 152.605469 183.738281 C 147.300781 184.132812 141.34375 181.898438 139.296875 177.058594 C 134.898438 166.339844 150.574219 147.703125 173.28125 146.339844 C 182.195312 145.804688 183.636719 151.601562 181.757812 151.914062 C 170.984375 153.585938 160.726562 157.117188 153.140625 164.890625 C 141.332031 177.96875 146.628906 182.867188 155.859375 181.351562 C 168.839844 177.265625 178.453125 166.226562 187.433594 155.957031 C 193.214844 148.699219 196.117188 143.386719 200.011719 136.738281 C 200.539062 135.835938 199.3125 128.28125 199.0625 126.988281 C 188.90625 74.746094 126.59375 89.523438 128.804688 117.769531 C 130.535156 139.84375 165.160156 144.46875 165.316406 144.898438 " fill-opacity="1" fill-rule="nonzero"/></g><g fill="#33145e" fill-opacity="1"><g transform="translate(16.371564, 308.378033)"><g><path d="M 2.53125 -0.765625 L 5.578125 -1.515625 L 5.578125 -33.984375 L 2.53125 -34.75 L 2.53125 -35.515625 L 16.234375 -35.515625 C 21.378906 -35.515625 25.160156 -34.691406 27.578125 -33.046875 C 29.992188 -31.410156 31.203125 -29.273438 31.203125 -26.640625 C 31.203125 -24.804688 30.675781 -23.332031 29.625 -22.21875 C 28.582031 -21.101562 27.25 -20.273438 25.625 -19.734375 C 23.894531 -19.128906 22.035156 -18.804688 20.046875 -18.765625 L 20.046875 -18.515625 C 22.515625 -18.410156 24.660156 -18.039062 26.484375 -17.40625 C 28.347656 -16.789062 29.894531 -15.84375 31.125 -14.5625 C 32.363281 -13.28125 32.984375 -11.640625 32.984375 -9.640625 C 32.984375 -6.628906 31.742188 -4.269531 29.265625 -2.5625 C 26.796875 -0.851562 22.789062 0 17.25 0 L 2.53125 0 Z M 16.234375 -19.28125 C 17.347656 -19.28125 18.382812 -19.59375 19.34375 -20.21875 C 20.3125 -20.84375 21.09375 -21.722656 21.6875 -22.859375 C 22.28125 -23.992188 22.578125 -25.253906 22.578125 -26.640625 C 22.578125 -28.128906 22.28125 -29.445312 21.6875 -30.59375 C 21.09375 -31.738281 20.3125 -32.632812 19.34375 -33.28125 C 18.382812 -33.925781 17.347656 -34.25 16.234375 -34.25 L 13.953125 -34.25 L 13.953125 -19.28125 Z M 17.25 -1.265625 C 19.34375 -1.265625 21.050781 -2.007812 22.375 -3.5 C 23.695312 -4.988281 24.359375 -7.035156 24.359375 -9.640625 C 24.359375 -12.242188 23.695312 -14.289062 22.375 -15.78125 C 21.050781 -17.269531 19.34375 -18.015625 17.25 -18.015625 L 13.953125 -18.015625 L 13.953125 -1.265625 Z M 17.25 -1.265625 "/></g></g></g><g fill="#33145e" fill-opacity="1"><g transform="translate(50.842431, 308.378033)"><g><path d="M 15.734375 0.765625 C 11.398438 0.765625 8.03125 -0.425781 5.625 -2.8125 C 3.226562 -5.195312 2.03125 -8.488281 2.03125 -12.6875 C 2.03125 -15.425781 2.550781 -17.804688 3.59375 -19.828125 C 4.644531 -21.859375 6.109375 -23.414062 7.984375 -24.5 C 9.867188 -25.582031 12.023438 -26.125 14.453125 -26.125 C 16.890625 -26.125 19.03125 -25.664062 20.875 -24.75 C 22.71875 -23.84375 24.140625 -22.617188 25.140625 -21.078125 C 26.140625 -19.535156 26.640625 -17.835938 26.640625 -15.984375 C 26.640625 -15.140625 26.550781 -14.410156 26.375 -13.796875 L 26.125 -12.9375 C 24.675781 -12.632812 23.101562 -12.378906 21.40625 -12.171875 C 17.851562 -11.671875 14.269531 -11.421875 10.65625 -11.421875 C 10.65625 -7.492188 11.195312 -4.691406 12.28125 -3.015625 C 13.363281 -1.335938 14.851562 -0.5 16.75 -0.5 C 18.0625 -0.5 19.285156 -0.8125 20.421875 -1.4375 C 21.554688 -2.070312 22.453125 -2.90625 23.109375 -3.9375 C 23.765625 -4.96875 24.09375 -6.023438 24.09375 -7.109375 L 25.359375 -7.109375 C 25.359375 -5.753906 24.953125 -4.46875 24.140625 -3.25 C 23.335938 -2.03125 22.207031 -1.054688 20.75 -0.328125 C 19.289062 0.398438 17.617188 0.765625 15.734375 0.765625 Z M 10.65625 -12.6875 C 12.820312 -12.6875 14.582031 -12.769531 15.9375 -12.9375 C 16.507812 -12.96875 17.113281 -13.050781 17.75 -13.1875 C 17.789062 -13.351562 17.878906 -13.726562 18.015625 -14.3125 C 18.179688 -15.15625 18.265625 -16.050781 18.265625 -17 C 18.265625 -19.800781 17.890625 -21.851562 17.140625 -23.15625 C 16.398438 -24.457031 15.503906 -25.109375 14.453125 -25.109375 C 11.921875 -25.109375 10.65625 -20.96875 10.65625 -12.6875 Z M 10.65625 -12.6875 "/></g></g></g><g fill="#33145e" fill-opacity="1"><g transform="translate(79.230242, 308.378033)"><g><path d="M 2.03125 -0.765625 L 5.078125 -1.515625 L 5.078125 -23.84375 L 2.03125 -24.609375 L 2.03125 -25.359375 L 6.59375 -25.359375 C 8.59375 -25.359375 10.164062 -24.71875 11.3125 -23.4375 C 11.75 -22.925781 12.125 -22.300781 12.4375 -21.5625 C 12.9375 -22.507812 13.472656 -23.269531 14.046875 -23.84375 C 15.578125 -25.363281 17.320312 -26.125 19.28125 -26.125 C 21.238281 -26.125 22.960938 -25.691406 24.453125 -24.828125 C 25.941406 -23.972656 27.09375 -22.800781 27.90625 -21.3125 C 28.414062 -22.289062 28.957031 -23.082031 29.53125 -23.6875 C 31.082031 -25.3125 32.820312 -26.125 34.75 -26.125 C 36.539062 -26.125 38.15625 -25.75 39.59375 -25 C 41.03125 -24.257812 42.144531 -23.25 42.9375 -21.96875 C 43.738281 -20.6875 44.140625 -19.28125 44.140625 -17.75 L 44.140625 -1.515625 L 47.1875 -0.765625 L 47.1875 0 L 40.59375 0 C 37.539062 0 36.015625 -1.519531 36.015625 -4.5625 L 36.015625 -17.75 C 36.015625 -19.957031 35.675781 -21.609375 35 -22.703125 C 34.320312 -23.804688 33.5625 -24.359375 32.71875 -24.359375 C 31.738281 -24.359375 30.742188 -23.679688 29.734375 -22.328125 C 29.328125 -21.679688 28.972656 -21.003906 28.671875 -20.296875 L 28.671875 -1.515625 L 31.703125 -0.765625 L 31.703125 0 L 17.5 0 L 17.5 -0.765625 L 20.546875 -1.515625 L 20.546875 -17.75 C 20.546875 -19.957031 20.207031 -21.609375 19.53125 -22.703125 C 18.851562 -23.804688 18.09375 -24.359375 17.25 -24.359375 C 16.269531 -24.359375 15.269531 -23.679688 14.25 -22.328125 C 13.84375 -21.679688 13.488281 -21.003906 13.1875 -20.296875 L 13.1875 -1.515625 L 16.234375 -0.765625 L 16.234375 0 L 2.03125 0 Z M 2.03125 -0.765625 "/></g></g></g><g fill="#33145e" fill-opacity="1"><g transform="translate(127.388066, 308.378033)"><g/></g></g><g fill="#33145e" fill-opacity="1"><g transform="translate(141.581971, 308.378033)"><g><path d="M 7.109375 -29.171875 L 7.109375 -2.28125 L 11.15625 -0.765625 L 11.15625 0 L 1.515625 0 L 1.515625 -0.765625 L 5.578125 -2.28125 L 5.578125 -33.984375 L 2.53125 -34.75 L 2.53125 -35.515625 L 8.875 -35.515625 C 10.632812 -35.515625 12.03125 -35.148438 13.0625 -34.421875 C 14.09375 -33.691406 14.984375 -32.617188 15.734375 -31.203125 L 26.78125 -10.046875 L 35.265625 -31.203125 C 35.835938 -32.691406 36.613281 -33.78125 37.59375 -34.46875 C 38.570312 -35.164062 40.078125 -35.515625 42.109375 -35.515625 L 47.4375 -35.515625 L 47.4375 -34.75 L 44.390625 -33.984375 L 44.390625 -1.515625 L 47.4375 -0.765625 L 47.4375 0 L 32.984375 0 L 32.984375 -0.765625 L 36.015625 -1.515625 L 36.015625 -29.171875 L 24.09375 0.5 L 22.578125 0.5 Z M 7.109375 -29.171875 "/></g></g></g><g fill="#33145e" fill-opacity="1"><g transform="translate(191.514034, 308.378033)"><g><path d="M 15.734375 0.765625 C 11.398438 0.765625 8.03125 -0.425781 5.625 -2.8125 C 3.226562 -5.195312 2.03125 -8.488281 2.03125 -12.6875 C 2.03125 -15.425781 2.550781 -17.804688 3.59375 -19.828125 C 4.644531 -21.859375 6.109375 -23.414062 7.984375 -24.5 C 9.867188 -25.582031 12.023438 -26.125 14.453125 -26.125 C 16.890625 -26.125 19.03125 -25.664062 20.875 -24.75 C 22.71875 -23.84375 24.140625 -22.617188 25.140625 -21.078125 C 26.140625 -19.535156 26.640625 -17.835938 26.640625 -15.984375 C 26.640625 -15.140625 26.550781 -14.410156 26.375 -13.796875 L 26.125 -12.9375 C 24.675781 -12.632812 23.101562 -12.378906 21.40625 -12.171875 C 17.851562 -11.671875 14.269531 -11.421875 10.65625 -11.421875 C 10.65625 -7.492188 11.195312 -4.691406 12.28125 -3.015625 C 13.363281 -1.335938 14.851562 -0.5 16.75 -0.5 C 18.0625 -0.5 19.285156 -0.8125 20.421875 -1.4375 C 21.554688 -2.070312 22.453125 -2.90625 23.109375 -3.9375 C 23.765625 -4.96875 24.09375 -6.023438 24.09375 -7.109375 L 25.359375 -7.109375 C 25.359375 -5.753906 24.953125 -4.46875 24.140625 -3.25 C 23.335938 -2.03125 22.207031 -1.054688 20.75 -0.328125 C 19.289062 0.398438 17.617188 0.765625 15.734375 0.765625 Z M 10.65625 -12.6875 C 12.820312 -12.6875 14.582031 -12.769531 15.9375 -12.9375 C 16.507812 -12.96875 17.113281 -13.050781 17.75 -13.1875 C 17.789062 -13.351562 17.878906 -13.726562 18.015625 -14.3125 C 18.179688 -15.15625 18.265625 -16.050781 18.265625 -17 C 18.265625 -19.800781 17.890625 -21.851562 17.140625 -23.15625 C 16.398438 -24.457031 15.503906 -25.109375 14.453125 -25.109375 C 11.921875 -25.109375 10.65625 -20.96875 10.65625 -12.6875 Z M 10.65625 -12.6875 "/></g></g></g><g fill="#33145e" fill-opacity="1"><g transform="translate(219.901844, 308.378033)"><g/></g></g><g fill="#33145e" fill-opacity="1"><g transform="translate(234.095749, 308.378033)"><g><path d="M 23.84375 8.625 C 22.019531 8.625 20.410156 8.257812 19.015625 7.53125 C 17.628906 6.800781 16.566406 5.800781 15.828125 4.53125 C 15.085938 3.269531 14.71875 1.84375 14.71875 0.25 C 10.820312 -0.5625 7.773438 -2.515625 5.578125 -5.609375 C 3.378906 -8.703125 2.28125 -12.75 2.28125 -17.75 C 2.28125 -21.675781 2.957031 -25.023438 4.3125 -27.796875 C 5.664062 -30.578125 7.582031 -32.6875 10.0625 -34.125 C 12.550781 -35.5625 15.453125 -36.28125 18.765625 -36.28125 C 22.085938 -36.28125 24.988281 -35.5625 27.46875 -34.125 C 29.957031 -32.6875 31.878906 -30.578125 33.234375 -27.796875 C 34.585938 -25.023438 35.265625 -21.675781 35.265625 -17.75 C 35.265625 -12.75 34.164062 -8.703125 31.96875 -5.609375 C 29.769531 -2.515625 26.722656 -0.5625 22.828125 0.25 C 22.828125 4.820312 23.671875 7.109375 25.359375 7.109375 C 25.835938 7.109375 26.210938 7.019531 26.484375 6.84375 C 26.515625 6.84375 26.648438 6.757812 26.890625 6.59375 L 27.390625 7.859375 C 27.253906 7.960938 26.984375 8.097656 26.578125 8.265625 C 25.972656 8.503906 25.0625 8.625 23.84375 8.625 Z M 18.765625 -0.25 C 20.085938 -0.25 21.316406 -0.804688 22.453125 -1.921875 C 23.585938 -3.046875 24.523438 -4.910156 25.265625 -7.515625 C 26.003906 -10.117188 26.375 -13.53125 26.375 -17.75 C 26.375 -21.976562 26.003906 -25.394531 25.265625 -28 C 24.523438 -30.601562 23.585938 -32.460938 22.453125 -33.578125 C 21.316406 -34.703125 20.085938 -35.265625 18.765625 -35.265625 C 17.453125 -35.265625 16.226562 -34.703125 15.09375 -33.578125 C 13.957031 -32.460938 13.015625 -30.601562 12.265625 -28 C 11.523438 -25.394531 11.15625 -21.976562 11.15625 -17.75 C 11.15625 -13.53125 11.523438 -10.117188 12.265625 -7.515625 C 13.015625 -4.910156 13.957031 -3.046875 15.09375 -1.921875 C 16.226562 -0.804688 17.453125 -0.25 18.765625 -0.25 Z M 18.765625 -0.25 "/></g></g></g><g fill="#33145e" fill-opacity="1"><g transform="translate(271.608197, 308.378033)"><g><path d="M 14.203125 0.765625 C 12.304688 0.765625 10.601562 0.367188 9.09375 -0.421875 C 7.59375 -1.222656 6.421875 -2.265625 5.578125 -3.546875 C 4.734375 -4.835938 4.3125 -6.191406 4.3125 -7.609375 L 4.3125 -23.84375 L 1.265625 -24.609375 L 1.265625 -25.359375 L 7.859375 -25.359375 C 10.910156 -25.359375 12.4375 -23.835938 12.4375 -20.796875 L 12.4375 -7.609375 C 12.4375 -5.472656 12.816406 -3.835938 13.578125 -2.703125 C 14.335938 -1.578125 15.222656 -1.015625 16.234375 -1.015625 C 17.484375 -1.015625 18.617188 -1.691406 19.640625 -3.046875 C 20.003906 -3.554688 20.390625 -4.234375 20.796875 -5.078125 L 20.796875 -23.84375 L 17.75 -24.609375 L 17.75 -25.359375 L 31.96875 -25.359375 L 31.96875 -24.609375 L 28.921875 -23.84375 L 28.921875 0.25 L 28.40625 0.25 C 25.9375 0.25 24.0625 -0.425781 22.78125 -1.78125 C 22.207031 -2.382812 21.800781 -3.0625 21.5625 -3.8125 C 21.09375 -2.957031 20.535156 -2.191406 19.890625 -1.515625 C 18.367188 0.00390625 16.472656 0.765625 14.203125 0.765625 Z M 14.203125 0.765625 "/></g></g></g><g fill="#33145e" fill-opacity="1"><g transform="translate(304.558326, 308.378033)"><g><path d="M 15.734375 0.765625 C 11.398438 0.765625 8.03125 -0.425781 5.625 -2.8125 C 3.226562 -5.195312 2.03125 -8.488281 2.03125 -12.6875 C 2.03125 -15.425781 2.550781 -17.804688 3.59375 -19.828125 C 4.644531 -21.859375 6.109375 -23.414062 7.984375 -24.5 C 9.867188 -25.582031 12.023438 -26.125 14.453125 -26.125 C 16.890625 -26.125 19.03125 -25.664062 20.875 -24.75 C 22.71875 -23.84375 24.140625 -22.617188 25.140625 -21.078125 C 26.140625 -19.535156 26.640625 -17.835938 26.640625 -15.984375 C 26.640625 -15.140625 26.550781 -14.410156 26.375 -13.796875 L 26.125 -12.9375 C 24.675781 -12.632812 23.101562 -12.378906 21.40625 -12.171875 C 17.851562 -11.671875 14.269531 -11.421875 10.65625 -11.421875 C 10.65625 -7.492188 11.195312 -4.691406 12.28125 -3.015625 C 13.363281 -1.335938 14.851562 -0.5 16.75 -0.5 C 18.0625 -0.5 19.285156 -0.8125 20.421875 -1.4375 C 21.554688 -2.070312 22.453125 -2.90625 23.109375 -3.9375 C 23.765625 -4.96875 24.09375 -6.023438 24.09375 -7.109375 L 25.359375 -7.109375 C 25.359375 -5.753906 24.953125 -4.46875 24.140625 -3.25 C 23.335938 -2.03125 22.207031 -1.054688 20.75 -0.328125 C 19.289062 0.398438 17.617188 0.765625 15.734375 0.765625 Z M 10.65625 -12.6875 C 12.820312 -12.6875 14.582031 -12.769531 15.9375 -12.9375 C 16.507812 -12.96875 17.113281 -13.050781 17.75 -13.1875 C 17.789062 -13.351562 17.878906 -13.726562 18.015625 -14.3125 C 18.179688 -15.15625 18.265625 -16.050781 18.265625 -17 C 18.265625 -19.800781 17.890625 -21.851562 17.140625 -23.15625 C 16.398438 -24.457031 15.503906 -25.109375 14.453125 -25.109375 C 11.921875 -25.109375 10.65625 -20.96875 10.65625 -12.6875 Z M 10.65625 -12.6875 "/></g></g></g><g fill="#33145e" fill-opacity="1"><g transform="translate(332.946136, 308.378033)"><g><path d="M 2.03125 -0.765625 L 5.078125 -1.515625 L 5.078125 -23.84375 L 2.03125 -24.609375 L 2.03125 -25.359375 L 6.59375 -25.359375 C 8.59375 -25.359375 10.164062 -24.71875 11.3125 -23.4375 C 11.75 -22.925781 12.125 -22.300781 12.4375 -21.5625 C 12.9375 -22.300781 13.5625 -22.976562 14.3125 -23.59375 C 16 -24.945312 17.890625 -25.625 19.984375 -25.625 C 21.773438 -25.625 23.117188 -25.207031 24.015625 -24.375 C 24.910156 -23.550781 25.359375 -22.359375 25.359375 -20.796875 C 25.359375 -19.648438 25.007812 -18.726562 24.3125 -18.03125 C 23.625 -17.34375 22.707031 -17 21.5625 -17 C 21.09375 -17 20.617188 -17.03125 20.140625 -17.09375 L 19.53125 -17.25 L 19.53125 -24.359375 C 17.800781 -24.359375 16.226562 -23.679688 14.8125 -22.328125 C 14.132812 -21.648438 13.59375 -20.972656 13.1875 -20.296875 L 13.1875 -1.515625 L 16.234375 -0.765625 L 16.234375 0 L 2.03125 0 Z M 2.03125 -0.765625 "/></g></g></g><g fill="#33145e" fill-opacity="1"><g transform="translate(53.062864, 348.693844)"><g><path d="M 13.65625 -2.070312 C 13.347656 -2.101562 13.039062 -2.039062 12.761719 -2.039062 C 12.449219 -2.039062 12.140625 -2.132812 11.832031 -2.101562 C 11.523438 -2.101562 11.214844 -2.070312 10.90625 -2.101562 C 10.78125 -2.101562 10.441406 -2.039062 10.042969 -2.039062 C 9.792969 -2.007812 9.484375 -2.007812 9.175781 -2.007812 C 8.898438 -2.007812 8.589844 -2.070312 8.28125 -2.070312 C 8.003906 -2.039062 7.691406 -2.039062 7.414062 -2.039062 C 7.105469 -2.007812 6.828125 -2.007812 6.550781 -2.007812 C 6.210938 -2.007812 5.933594 -1.945312 5.652344 -1.945312 C 5.3125 -1.945312 5.003906 -1.976562 4.789062 -1.976562 C 4.542969 -1.945312 4.386719 -2.164062 4.355469 -2.410156 C 4.355469 -2.59375 4.292969 -2.84375 4.292969 -3.089844 C 4.261719 -3.304688 4.234375 -3.554688 4.261719 -3.769531 C 4.261719 -3.832031 4.261719 -4.140625 4.261719 -4.574219 C 4.261719 -4.820312 4.234375 -5.097656 4.234375 -5.40625 C 4.234375 -5.652344 4.355469 -5.933594 4.355469 -6.210938 C 4.355469 -6.488281 4.261719 -6.765625 4.261719 -7.042969 C 4.292969 -7.324219 4.355469 -7.601562 4.355469 -7.847656 C 4.386719 -8.28125 4.355469 -8.558594 4.386719 -8.652344 C 4.574219 -8.652344 4.882812 -8.652344 5.253906 -8.621094 C 5.53125 -8.621094 5.808594 -8.683594 6.148438 -8.683594 C 6.425781 -8.683594 6.703125 -8.652344 7.011719 -8.652344 C 7.292969 -8.652344 7.601562 -8.621094 7.910156 -8.621094 C 8.1875 -8.621094 8.496094 -8.652344 8.773438 -8.652344 C 9.082031 -8.652344 9.363281 -8.621094 9.640625 -8.621094 C 9.949219 -8.621094 10.257812 -8.621094 10.503906 -8.621094 C 10.90625 -8.621094 11.214844 -8.683594 11.402344 -8.683594 C 11.832031 -8.683594 12.140625 -8.683594 12.328125 -8.742188 C 12.605469 -8.867188 12.636719 -9.113281 12.605469 -9.546875 C 12.574219 -9.792969 12.574219 -10.132812 12.511719 -10.503906 C 12.234375 -10.535156 11.894531 -10.566406 11.617188 -10.566406 C 11.308594 -10.597656 11 -10.503906 10.722656 -10.535156 C 10.410156 -10.535156 10.101562 -10.628906 9.824219 -10.660156 C 9.703125 -10.691406 9.390625 -10.691406 8.960938 -10.691406 C 8.710938 -10.691406 8.433594 -10.628906 8.125 -10.628906 C 7.847656 -10.628906 7.570312 -10.691406 7.261719 -10.691406 C 6.984375 -10.691406 6.703125 -10.722656 6.425781 -10.722656 C 6.117188 -10.722656 5.839844 -10.628906 5.5625 -10.628906 C 5.222656 -10.628906 4.914062 -10.722656 4.726562 -10.722656 C 4.542969 -10.722656 4.355469 -10.8125 4.355469 -11 C 4.355469 -11.183594 4.355469 -11.460938 4.355469 -11.769531 C 4.355469 -12.019531 4.324219 -12.296875 4.324219 -12.574219 C 4.324219 -12.851562 4.355469 -13.128906 4.355469 -13.378906 C 4.355469 -13.71875 4.324219 -14.027344 4.324219 -14.148438 C 4.324219 -14.273438 4.386719 -14.582031 4.417969 -14.953125 C 4.417969 -15.199219 4.417969 -15.480469 4.449219 -15.789062 C 4.449219 -16.066406 4.417969 -16.34375 4.417969 -16.589844 C 4.449219 -16.929688 4.511719 -17.210938 4.542969 -17.363281 C 4.726562 -17.363281 5.003906 -17.394531 5.34375 -17.394531 C 5.59375 -17.394531 5.871094 -17.457031 6.179688 -17.457031 C 6.457031 -17.457031 6.734375 -17.363281 7.011719 -17.363281 C 7.292969 -17.363281 7.570312 -17.394531 7.847656 -17.394531 C 8.125 -17.394531 8.402344 -17.394531 8.683594 -17.394531 C 8.960938 -17.394531 9.238281 -17.394531 9.515625 -17.394531 C 9.792969 -17.394531 10.070312 -17.425781 10.351562 -17.425781 C 10.628906 -17.425781 10.90625 -17.425781 11.183594 -17.425781 C 11.460938 -17.425781 11.742188 -17.457031 12.019531 -17.457031 C 12.296875 -17.457031 12.574219 -17.363281 12.820312 -17.363281 C 13.191406 -17.363281 13.46875 -17.394531 13.65625 -17.394531 C 14.027344 -17.394531 14.304688 -17.363281 14.488281 -17.488281 C 14.675781 -17.609375 14.769531 -17.859375 14.800781 -18.257812 C 14.800781 -18.539062 14.769531 -18.753906 14.738281 -18.96875 C 14.707031 -19.1875 14.644531 -19.308594 14.335938 -19.402344 C 14.148438 -19.433594 13.933594 -19.496094 13.625 -19.496094 C 13.378906 -19.496094 13.101562 -19.464844 12.820312 -19.464844 C 12.574219 -19.464844 12.296875 -19.496094 12.019531 -19.464844 C 11.742188 -19.464844 11.492188 -19.433594 11.214844 -19.433594 C 11.03125 -19.433594 10.722656 -19.433594 10.351562 -19.433594 C 10.101562 -19.433594 9.792969 -19.496094 9.484375 -19.496094 C 9.207031 -19.496094 8.929688 -19.433594 8.621094 -19.433594 C 8.34375 -19.433594 8.03125 -19.433594 7.722656 -19.433594 C 7.445312 -19.464844 7.167969 -19.527344 6.859375 -19.527344 C 6.582031 -19.527344 6.273438 -19.496094 5.992188 -19.496094 C 5.714844 -19.527344 5.40625 -19.464844 5.128906 -19.496094 C 4.820312 -19.496094 4.542969 -19.558594 4.261719 -19.558594 C 3.953125 -19.558594 3.644531 -19.496094 3.398438 -19.496094 C 3.027344 -19.496094 2.78125 -19.496094 2.5625 -19.496094 C 2.5625 -19.25 2.535156 -19 2.503906 -18.660156 C 2.503906 -18.414062 2.503906 -18.136719 2.503906 -17.828125 C 2.503906 -17.550781 2.535156 -17.269531 2.535156 -16.992188 C 2.535156 -16.714844 2.441406 -16.4375 2.441406 -16.128906 C 2.441406 -15.847656 2.535156 -15.570312 2.535156 -15.292969 C 2.535156 -15.015625 2.472656 -14.738281 2.472656 -14.429688 C 2.472656 -14.148438 2.410156 -13.871094 2.410156 -13.59375 C 2.410156 -13.316406 2.472656 -13.039062 2.472656 -12.730469 C 2.472656 -12.449219 2.441406 -12.171875 2.441406 -11.894531 C 2.441406 -11.617188 2.441406 -11.308594 2.441406 -11.03125 C 2.441406 -10.75 2.472656 -10.472656 2.472656 -10.195312 C 2.472656 -9.917969 2.472656 -9.609375 2.472656 -9.332031 C 2.472656 -9.050781 2.378906 -8.773438 2.378906 -8.496094 C 2.378906 -8.21875 2.472656 -7.941406 2.472656 -7.664062 C 2.472656 -7.351562 2.410156 -7.074219 2.410156 -6.796875 C 2.410156 -6.519531 2.472656 -6.242188 2.472656 -5.964844 C 2.472656 -5.683594 2.378906 -5.375 2.378906 -5.128906 C 2.347656 -4.820312 2.441406 -4.542969 2.441406 -4.261719 C 2.441406 -3.984375 2.378906 -3.707031 2.378906 -3.429688 C 2.378906 -3.121094 2.410156 -2.84375 2.410156 -2.5625 C 2.410156 -2.285156 2.378906 -1.976562 2.378906 -1.730469 C 2.378906 -1.421875 2.410156 -1.144531 2.410156 -0.894531 C 2.410156 -0.617188 2.902344 -0.0625 3.214844 -0.03125 C 3.429688 -0.03125 3.707031 -0.125 4.015625 -0.125 C 4.261719 -0.09375 4.542969 -0.03125 4.851562 -0.03125 C 5.128906 -0.03125 5.40625 -0.0625 5.683594 -0.0625 C 5.964844 -0.0625 6.242188 0 6.519531 0 C 6.796875 0 7.074219 -0.03125 7.351562 -0.03125 C 7.632812 -0.03125 7.910156 -0.0625 8.1875 -0.0625 C 8.464844 -0.0625 8.742188 -0.0625 9.023438 -0.0625 C 9.300781 -0.0625 9.578125 -0.0625 9.855469 -0.0625 C 10.132812 -0.0625 10.410156 0 10.660156 0 C 10.96875 0 11.246094 -0.09375 11.492188 -0.125 C 11.800781 -0.125 12.050781 -0.125 12.328125 -0.125 C 12.605469 -0.125 12.882812 -0.03125 13.160156 -0.03125 C 13.46875 -0.03125 13.75 -0.125 13.964844 -0.125 C 14.367188 -0.15625 14.550781 -0.339844 14.613281 -0.617188 C 14.644531 -0.863281 14.582031 -1.203125 14.398438 -1.484375 C 14.210938 -1.761719 14.027344 -2.039062 13.65625 -2.070312 Z M 13.65625 -2.070312 "/></g></g></g><g fill="#33145e" fill-opacity="1"><g transform="translate(90.715721, 348.693844)"><g><path d="M 13.65625 -5.964844 C 13.625 -6.273438 13.53125 -6.550781 13.441406 -6.828125 C 13.316406 -7.105469 13.253906 -7.382812 13.101562 -7.632812 C 12.945312 -7.878906 12.761719 -8.125 12.574219 -8.34375 C 12.390625 -8.558594 12.140625 -8.742188 11.925781 -8.929688 C 11.710938 -9.113281 11.492188 -9.332031 11.246094 -9.484375 C 11 -9.640625 10.722656 -9.792969 10.472656 -9.917969 C 10.164062 -10.042969 9.886719 -10.132812 9.671875 -10.195312 C 9.363281 -10.289062 9.082031 -10.410156 8.867188 -10.472656 C 8.558594 -10.597656 8.3125 -10.722656 8.09375 -10.8125 C 7.785156 -10.90625 7.539062 -11 7.324219 -11.089844 C 7.136719 -11.152344 6.859375 -11.214844 6.550781 -11.339844 C 6.332031 -11.429688 6.054688 -11.523438 5.777344 -11.648438 C 5.5625 -11.769531 5.34375 -11.957031 5.128906 -12.140625 C 4.914062 -12.296875 4.695312 -12.449219 4.511719 -12.667969 C 4.324219 -12.851562 4.203125 -13.101562 4.078125 -13.347656 C 3.984375 -13.59375 3.894531 -13.871094 3.894531 -14.148438 C 3.894531 -14.429688 3.921875 -14.707031 3.953125 -14.984375 C 4.015625 -15.261719 4.109375 -15.507812 4.234375 -15.757812 C 4.324219 -16.003906 4.449219 -16.25 4.601562 -16.46875 C 4.757812 -16.683594 4.972656 -16.871094 5.160156 -17.023438 C 5.375 -17.210938 5.5625 -17.425781 5.808594 -17.550781 C 6.054688 -17.671875 6.304688 -17.734375 6.582031 -17.796875 C 6.828125 -17.859375 7.105469 -17.949219 7.382812 -17.949219 C 7.632812 -17.949219 7.910156 -17.917969 8.15625 -17.859375 C 8.402344 -17.828125 8.652344 -17.765625 8.898438 -17.671875 C 9.144531 -17.578125 9.390625 -17.488281 9.609375 -17.363281 C 9.855469 -17.238281 10.070312 -17.085938 10.289062 -16.960938 C 10.503906 -16.808594 10.722656 -16.652344 10.90625 -16.5 C 11.152344 -16.3125 11.277344 -16.066406 11.429688 -15.910156 C 11.679688 -15.632812 11.925781 -15.570312 12.171875 -15.570312 C 12.421875 -15.601562 12.605469 -15.726562 12.882812 -16.003906 C 13.101562 -16.1875 13.5625 -16.558594 13.347656 -16.871094 C 13.191406 -17.117188 13.007812 -17.300781 12.882812 -17.519531 C 12.730469 -17.734375 12.574219 -17.917969 12.359375 -18.136719 C 12.234375 -18.230469 11.988281 -18.382812 11.617188 -18.597656 C 11.402344 -18.753906 11.152344 -18.878906 10.84375 -19.03125 C 10.597656 -19.125 10.351562 -19.277344 10.042969 -19.371094 C 9.792969 -19.464844 9.515625 -19.589844 9.207031 -19.648438 C 8.929688 -19.710938 8.621094 -19.679688 8.3125 -19.710938 C 8.03125 -19.742188 7.722656 -19.742188 7.414062 -19.742188 C 7.136719 -19.742188 6.859375 -19.742188 6.550781 -19.710938 C 6.273438 -19.648438 5.992188 -19.589844 5.714844 -19.496094 C 5.4375 -19.402344 5.191406 -19.25 4.941406 -19.125 C 4.664062 -18.96875 4.417969 -18.847656 4.171875 -18.660156 C 3.953125 -18.507812 3.738281 -18.289062 3.523438 -18.074219 C 3.335938 -17.890625 3.089844 -17.703125 2.902344 -17.457031 C 2.75 -17.238281 2.65625 -16.929688 2.535156 -16.683594 C 2.410156 -16.40625 2.253906 -16.160156 2.164062 -15.878906 C 2.070312 -15.601562 2.007812 -15.324219 1.976562 -15.015625 C 1.914062 -14.738281 1.882812 -14.460938 1.882812 -14.148438 C 1.882812 -13.839844 1.945312 -13.5625 1.976562 -13.316406 C 2.039062 -13.007812 2.070312 -12.730469 2.164062 -12.480469 C 2.285156 -12.203125 2.410156 -11.925781 2.535156 -11.710938 C 2.6875 -11.460938 2.902344 -11.246094 3.089844 -11.03125 C 3.273438 -10.84375 3.492188 -10.628906 3.707031 -10.472656 C 3.921875 -10.289062 4.203125 -10.164062 4.417969 -10.042969 C 4.695312 -9.886719 4.941406 -9.761719 5.191406 -9.671875 C 5.5 -9.515625 5.746094 -9.421875 5.992188 -9.363281 C 6.210938 -9.269531 6.457031 -9.175781 6.671875 -9.113281 C 6.921875 -9.023438 7.167969 -8.929688 7.382812 -8.867188 C 7.632812 -8.773438 7.878906 -8.683594 8.09375 -8.621094 C 8.34375 -8.527344 8.558594 -8.433594 8.804688 -8.34375 C 8.960938 -8.28125 9.175781 -8.15625 9.484375 -8.003906 C 9.703125 -7.878906 9.886719 -7.691406 10.132812 -7.539062 C 10.320312 -7.414062 10.566406 -7.292969 10.75 -7.105469 C 10.96875 -6.953125 11.121094 -6.734375 11.277344 -6.519531 C 11.429688 -6.332031 11.554688 -6.085938 11.648438 -5.839844 C 11.710938 -5.625 11.769531 -5.375 11.769531 -5.097656 C 11.769531 -4.789062 11.742188 -4.511719 11.679688 -4.234375 C 11.617188 -3.953125 11.460938 -3.707031 11.308594 -3.429688 C 11.152344 -3.183594 10.96875 -2.996094 10.78125 -2.78125 C 10.566406 -2.5625 10.351562 -2.378906 10.101562 -2.222656 C 9.855469 -2.070312 9.609375 -1.945312 9.332031 -1.855469 C 9.050781 -1.761719 8.773438 -1.667969 8.496094 -1.605469 C 8.21875 -1.574219 7.941406 -1.542969 7.632812 -1.542969 C 7.324219 -1.542969 7.011719 -1.542969 6.734375 -1.605469 C 6.457031 -1.667969 6.179688 -1.824219 5.933594 -1.945312 C 5.652344 -2.070312 5.375 -2.195312 5.160156 -2.347656 C 4.914062 -2.535156 4.726562 -2.78125 4.511719 -2.996094 C 4.292969 -3.214844 4.046875 -3.367188 3.863281 -3.582031 C 3.613281 -3.863281 3.429688 -4.109375 3.304688 -4.234375 C 3.058594 -4.511719 2.902344 -4.601562 2.71875 -4.542969 C 2.5625 -4.511719 2.347656 -4.449219 2.101562 -4.234375 C 1.855469 -4.015625 1.699219 -3.863281 1.574219 -3.707031 C 1.453125 -3.523438 1.453125 -3.335938 1.699219 -3.027344 C 1.761719 -2.933594 1.882812 -2.6875 2.132812 -2.378906 C 2.253906 -2.195312 2.472656 -2.007812 2.65625 -1.792969 C 2.84375 -1.605469 3.027344 -1.421875 3.242188 -1.234375 C 3.429688 -1.082031 3.675781 -0.988281 3.894531 -0.835938 C 4.109375 -0.679688 4.292969 -0.464844 4.542969 -0.339844 C 4.757812 -0.246094 5.035156 -0.183594 5.3125 -0.125 C 5.53125 -0.03125 5.777344 0.125 6.023438 0.183594 C 6.273438 0.246094 6.550781 0.277344 6.828125 0.308594 C 7.074219 0.308594 7.351562 0.308594 7.632812 0.308594 C 7.910156 0.308594 8.1875 0.277344 8.433594 0.246094 C 8.742188 0.214844 8.992188 0.183594 9.269531 0.125 C 9.546875 0.0625 9.792969 0 10.070312 -0.09375 C 10.320312 -0.183594 10.597656 -0.277344 10.84375 -0.402344 C 11.089844 -0.523438 11.277344 -0.742188 11.492188 -0.894531 C 11.710938 -1.050781 11.988281 -1.175781 12.171875 -1.359375 C 12.390625 -1.574219 12.542969 -1.792969 12.699219 -2.007812 C 12.851562 -2.222656 13.039062 -2.441406 13.191406 -2.6875 C 13.316406 -2.933594 13.441406 -3.183594 13.5 -3.460938 C 13.59375 -3.707031 13.65625 -3.984375 13.6875 -4.261719 C 13.75 -4.542969 13.78125 -4.820312 13.78125 -5.097656 C 13.78125 -5.40625 13.71875 -5.683594 13.65625 -5.964844 Z M 13.65625 -5.964844 "/></g></g></g><g fill="#33145e" fill-opacity="1"><g transform="translate(127.751071, 348.693844)"><g><path d="M 13.160156 -19.25 C 13.039062 -19.402344 12.789062 -19.433594 12.480469 -19.464844 C 12.265625 -19.464844 11.957031 -19.433594 11.617188 -19.433594 C 11.371094 -19.433594 11.0625 -19.527344 10.75 -19.527344 C 10.472656 -19.558594 10.195312 -19.464844 9.886719 -19.464844 C 9.609375 -19.464844 9.332031 -19.496094 9.023438 -19.496094 C 8.742188 -19.496094 8.464844 -19.433594 8.15625 -19.433594 C 7.878906 -19.433594 7.601562 -19.558594 7.292969 -19.558594 C 7.011719 -19.558594 6.734375 -19.496094 6.425781 -19.496094 C 6.148438 -19.496094 5.871094 -19.558594 5.5625 -19.558594 C 5.28125 -19.558594 5.003906 -19.527344 4.726562 -19.527344 C 4.417969 -19.527344 4.140625 -19.527344 3.863281 -19.527344 C 3.554688 -19.527344 3.273438 -19.527344 2.996094 -19.527344 C 2.6875 -19.527344 2.410156 -19.558594 2.132812 -19.558594 C 1.792969 -19.589844 1.515625 -19.464844 1.296875 -19.464844 C 1.113281 -19.496094 0.894531 -19.558594 0.804688 -19.464844 C 0.523438 -19.25 0.523438 -18.878906 0.554688 -18.628906 C 0.585938 -18.257812 0.433594 -17.890625 0.742188 -17.640625 C 0.957031 -17.457031 1.359375 -17.519531 1.699219 -17.488281 C 1.882812 -17.488281 2.195312 -17.488281 2.535156 -17.488281 C 2.78125 -17.488281 3.089844 -17.457031 3.367188 -17.457031 C 3.644531 -17.457031 3.953125 -17.457031 4.234375 -17.457031 C 4.511719 -17.425781 4.820312 -17.332031 5.066406 -17.332031 C 5.5625 -17.332031 5.652344 -17.703125 5.933594 -17.394531 C 6.210938 -17.085938 5.964844 -16.992188 5.964844 -16.53125 C 5.964844 -16.28125 5.871094 -15.972656 5.871094 -15.695312 C 5.871094 -15.507812 5.964844 -15.230469 5.964844 -14.890625 C 5.933594 -14.644531 5.902344 -14.367188 5.902344 -14.058594 C 5.902344 -13.808594 5.871094 -13.53125 5.871094 -13.222656 C 5.871094 -12.976562 5.902344 -12.699219 5.902344 -12.390625 C 5.902344 -12.140625 5.933594 -11.863281 5.933594 -11.554688 C 5.933594 -11.308594 5.871094 -11.03125 5.871094 -10.75 C 5.871094 -10.472656 5.871094 -10.195312 5.871094 -9.917969 C 5.871094 -9.640625 5.933594 -9.363281 5.933594 -9.082031 C 5.933594 -8.804688 5.933594 -8.527344 5.933594 -8.25 C 5.933594 -7.972656 5.871094 -7.691406 5.871094 -7.414062 C 5.871094 -7.136719 5.902344 -6.859375 5.902344 -6.613281 C 5.902344 -6.332031 5.902344 -6.054688 5.902344 -5.777344 C 5.902344 -5.5 5.933594 -5.222656 5.933594 -4.941406 C 5.933594 -4.664062 5.902344 -4.386719 5.902344 -4.109375 C 5.902344 -3.832031 5.839844 -3.554688 5.839844 -3.304688 C 5.839844 -2.996094 5.902344 -2.71875 5.902344 -2.472656 C 5.902344 -2.164062 5.933594 -1.882812 5.964844 -1.636719 C 5.964844 -1.296875 5.964844 -1.019531 5.964844 -0.835938 C 5.964844 -0.339844 6.054688 -0.183594 6.210938 -0.09375 C 6.363281 0.03125 6.613281 0.09375 7.011719 0.0625 C 7.414062 0.0625 7.632812 -0.0625 7.753906 -0.15625 C 7.941406 -0.277344 8.03125 -0.464844 8.003906 -0.863281 C 8.003906 -1.144531 7.972656 -1.421875 7.972656 -1.699219 C 7.972656 -1.976562 8.003906 -2.285156 8.003906 -2.5625 C 8.003906 -2.84375 7.941406 -3.152344 7.941406 -3.429688 C 7.941406 -3.707031 7.941406 -3.984375 7.941406 -4.261719 C 7.941406 -4.574219 7.972656 -4.851562 7.972656 -5.128906 C 7.972656 -5.28125 7.941406 -5.5625 7.941406 -5.933594 C 7.941406 -6.179688 7.972656 -6.457031 7.941406 -6.765625 C 7.941406 -7.011719 7.972656 -7.292969 7.972656 -7.601562 C 7.972656 -7.847656 7.910156 -8.125 7.910156 -8.433594 C 7.910156 -8.683594 7.941406 -8.960938 7.941406 -9.238281 C 7.941406 -9.515625 7.878906 -9.792969 7.878906 -10.070312 C 7.878906 -10.351562 7.941406 -10.628906 7.941406 -10.90625 C 7.941406 -11.183594 7.941406 -11.460938 7.941406 -11.742188 C 7.941406 -12.019531 7.878906 -12.265625 7.878906 -12.542969 C 7.878906 -12.820312 7.941406 -13.101562 7.941406 -13.378906 C 7.941406 -13.65625 7.941406 -13.933594 7.941406 -14.179688 C 7.941406 -14.488281 7.847656 -14.738281 7.847656 -15.015625 C 7.847656 -15.292969 7.910156 -15.570312 7.910156 -15.820312 C 7.878906 -16.128906 7.910156 -16.40625 7.910156 -16.652344 C 7.910156 -16.992188 7.847656 -17.332031 7.847656 -17.519531 C 8.03125 -17.519531 8.402344 -17.488281 8.773438 -17.488281 C 9.050781 -17.488281 9.363281 -17.425781 9.703125 -17.425781 C 10.011719 -17.425781 10.320312 -17.519531 10.628906 -17.519531 C 10.9375 -17.519531 11.246094 -17.488281 11.523438 -17.488281 C 11.957031 -17.488281 12.296875 -17.425781 12.449219 -17.425781 C 12.820312 -17.425781 13.039062 -17.578125 13.128906 -17.765625 C 13.253906 -17.949219 13.316406 -18.199219 13.316406 -18.570312 C 13.316406 -18.878906 13.253906 -19.125 13.160156 -19.25 Z M 13.160156 -19.25 "/></g></g></g><g fill="#33145e" fill-opacity="1"><g transform="translate(163.335303, 348.693844)"><g><path d="M 8.683594 -20.699219 C 8.867188 -20.855469 9.082031 -21.039062 9.332031 -21.289062 C 9.515625 -21.503906 9.730469 -21.6875 9.949219 -21.9375 C 10.132812 -22.152344 10.320312 -22.398438 10.503906 -22.617188 C 10.691406 -22.863281 10.875 -23.109375 11.03125 -23.328125 C 11.277344 -23.636719 11.460938 -23.882812 11.554688 -24.007812 C 11.742188 -24.253906 11.894531 -24.46875 11.988281 -24.625 C 12.171875 -24.902344 12.171875 -25.117188 11.742188 -25.117188 C 11.492188 -25.117188 11.246094 -25.085938 11.03125 -25.085938 C 10.75 -25.085938 10.503906 -25.117188 10.289062 -25.054688 C 10.070312 -24.996094 9.886719 -24.871094 9.761719 -24.625 C 9.703125 -24.46875 9.578125 -24.222656 9.421875 -23.882812 C 9.300781 -23.667969 9.144531 -23.417969 9.023438 -23.171875 C 8.929688 -22.925781 8.835938 -22.675781 8.710938 -22.429688 C 8.589844 -22.152344 8.496094 -21.90625 8.402344 -21.65625 C 8.28125 -21.410156 8.21875 -21.132812 8.15625 -20.886719 C 8.125 -20.699219 8.433594 -20.546875 8.683594 -20.699219 Z M 13.65625 -2.007812 C 13.347656 -2.039062 13.039062 -1.976562 12.761719 -1.976562 C 12.449219 -1.976562 12.140625 -2.070312 11.832031 -2.039062 C 11.523438 -2.039062 11.214844 -2.007812 10.90625 -2.039062 C 10.78125 -2.039062 10.441406 -1.976562 10.042969 -1.976562 C 9.792969 -1.945312 9.484375 -1.945312 9.175781 -1.945312 C 8.898438 -1.945312 8.589844 -2.007812 8.28125 -2.007812 C 8.003906 -2.007812 7.691406 -1.976562 7.414062 -1.976562 C 7.105469 -1.945312 6.828125 -1.945312 6.550781 -1.945312 C 6.210938 -1.945312 5.933594 -1.882812 5.652344 -1.882812 C 5.3125 -1.882812 5.003906 -1.914062 4.789062 -1.914062 C 4.542969 -1.882812 4.386719 -2.101562 4.355469 -2.347656 C 4.355469 -2.535156 4.292969 -2.78125 4.292969 -3.027344 C 4.261719 -3.242188 4.234375 -3.492188 4.261719 -3.707031 C 4.261719 -3.769531 4.261719 -4.078125 4.261719 -4.511719 C 4.261719 -4.757812 4.234375 -5.035156 4.234375 -5.34375 C 4.234375 -5.59375 4.355469 -5.871094 4.355469 -6.148438 C 4.355469 -6.425781 4.261719 -6.703125 4.261719 -6.984375 C 4.292969 -7.261719 4.355469 -7.539062 4.355469 -7.785156 C 4.386719 -8.21875 4.355469 -8.496094 4.386719 -8.589844 C 4.574219 -8.589844 4.882812 -8.589844 5.253906 -8.558594 C 5.53125 -8.558594 5.808594 -8.621094 6.148438 -8.621094 C 6.425781 -8.621094 6.703125 -8.589844 7.011719 -8.589844 C 7.292969 -8.589844 7.601562 -8.558594 7.878906 -8.558594 C 8.1875 -8.558594 8.496094 -8.589844 8.773438 -8.589844 C 9.082031 -8.589844 9.363281 -8.558594 9.640625 -8.558594 C 9.949219 -8.558594 10.257812 -8.558594 10.503906 -8.558594 C 10.90625 -8.558594 11.214844 -8.621094 11.402344 -8.621094 C 11.832031 -8.621094 12.140625 -8.621094 12.328125 -8.683594 C 12.605469 -8.804688 12.636719 -9.050781 12.605469 -9.484375 C 12.574219 -9.730469 12.574219 -10.070312 12.511719 -10.441406 C 12.234375 -10.472656 11.894531 -10.503906 11.617188 -10.503906 C 11.308594 -10.535156 11 -10.441406 10.722656 -10.472656 C 10.410156 -10.472656 10.101562 -10.566406 9.824219 -10.597656 C 9.703125 -10.628906 9.390625 -10.628906 8.960938 -10.628906 C 8.710938 -10.628906 8.433594 -10.566406 8.125 -10.566406 C 7.847656 -10.566406 7.570312 -10.628906 7.261719 -10.628906 C 6.984375 -10.628906 6.703125 -10.660156 6.425781 -10.660156 C 6.117188 -10.660156 5.839844 -10.566406 5.5625 -10.566406 C 5.222656 -10.566406 4.914062 -10.660156 4.726562 -10.660156 C 4.542969 -10.660156 4.355469 -10.75 4.355469 -10.9375 C 4.355469 -11.121094 4.355469 -11.402344 4.355469 -11.710938 C 4.355469 -11.957031 4.324219 -12.234375 4.324219 -12.511719 C 4.324219 -12.789062 4.355469 -13.070312 4.355469 -13.316406 C 4.355469 -13.65625 4.324219 -13.964844 4.324219 -14.089844 C 4.324219 -14.210938 4.386719 -14.519531 4.417969 -14.890625 C 4.417969 -15.140625 4.417969 -15.417969 4.449219 -15.726562 C 4.449219 -16.003906 4.417969 -16.28125 4.417969 -16.53125 C 4.449219 -16.871094 4.511719 -17.148438 4.542969 -17.300781 C 4.726562 -17.300781 5.003906 -17.332031 5.34375 -17.332031 C 5.59375 -17.332031 5.871094 -17.394531 6.179688 -17.394531 C 6.425781 -17.394531 6.734375 -17.300781 7.011719 -17.300781 C 7.292969 -17.300781 7.570312 -17.332031 7.847656 -17.332031 C 8.125 -17.332031 8.402344 -17.332031 8.683594 -17.332031 C 8.960938 -17.332031 9.238281 -17.332031 9.515625 -17.332031 C 9.792969 -17.332031 10.070312 -17.363281 10.351562 -17.363281 C 10.628906 -17.363281 10.90625 -17.363281 11.183594 -17.363281 C 11.460938 -17.363281 11.742188 -17.394531 12.019531 -17.394531 C 12.296875 -17.394531 12.574219 -17.300781 12.820312 -17.300781 C 13.191406 -17.300781 13.46875 -17.332031 13.65625 -17.332031 C 14.027344 -17.332031 14.304688 -17.300781 14.488281 -17.425781 C 14.675781 -17.550781 14.769531 -17.796875 14.800781 -18.199219 C 14.800781 -18.476562 14.769531 -18.691406 14.738281 -18.910156 C 14.707031 -19.125 14.644531 -19.25 14.335938 -19.339844 C 14.148438 -19.371094 13.933594 -19.433594 13.625 -19.433594 C 13.378906 -19.433594 13.101562 -19.402344 12.820312 -19.402344 C 12.574219 -19.402344 12.296875 -19.402344 12.019531 -19.402344 C 11.742188 -19.402344 11.492188 -19.371094 11.214844 -19.371094 C 11.03125 -19.371094 10.722656 -19.371094 10.351562 -19.371094 C 10.101562 -19.371094 9.792969 -19.433594 9.484375 -19.433594 C 9.207031 -19.433594 8.898438 -19.371094 8.621094 -19.371094 C 8.34375 -19.371094 8.03125 -19.371094 7.722656 -19.371094 C 7.445312 -19.371094 7.167969 -19.464844 6.859375 -19.464844 C 6.582031 -19.464844 6.273438 -19.433594 5.992188 -19.433594 C 5.714844 -19.464844 5.40625 -19.402344 5.128906 -19.402344 C 4.820312 -19.433594 4.542969 -19.496094 4.261719 -19.496094 C 3.953125 -19.496094 3.644531 -19.433594 3.398438 -19.433594 C 3.027344 -19.433594 2.78125 -19.433594 2.5625 -19.433594 C 2.5625 -19.1875 2.503906 -18.9375 2.503906 -18.597656 C 2.503906 -18.351562 2.503906 -18.074219 2.503906 -17.765625 C 2.503906 -17.488281 2.535156 -17.210938 2.535156 -16.929688 C 2.503906 -16.652344 2.441406 -16.375 2.441406 -16.066406 C 2.441406 -15.789062 2.535156 -15.507812 2.535156 -15.230469 C 2.535156 -14.953125 2.472656 -14.675781 2.472656 -14.367188 C 2.472656 -14.089844 2.410156 -13.808594 2.410156 -13.53125 C 2.410156 -13.253906 2.472656 -12.945312 2.472656 -12.667969 C 2.472656 -12.390625 2.441406 -12.109375 2.441406 -11.832031 C 2.441406 -11.554688 2.441406 -11.246094 2.441406 -10.96875 C 2.441406 -10.691406 2.472656 -10.410156 2.472656 -10.132812 C 2.472656 -9.824219 2.472656 -9.546875 2.472656 -9.269531 C 2.472656 -8.992188 2.378906 -8.710938 2.378906 -8.433594 C 2.378906 -8.15625 2.472656 -7.878906 2.472656 -7.601562 C 2.472656 -7.292969 2.410156 -7.011719 2.410156 -6.734375 C 2.410156 -6.457031 2.472656 -6.179688 2.472656 -5.902344 C 2.472656 -5.625 2.378906 -5.3125 2.378906 -5.035156 C 2.347656 -4.757812 2.441406 -4.480469 2.441406 -4.203125 C 2.441406 -3.921875 2.378906 -3.613281 2.378906 -3.367188 C 2.378906 -3.058594 2.410156 -2.78125 2.410156 -2.503906 C 2.410156 -2.222656 2.378906 -1.914062 2.378906 -1.667969 C 2.378906 -1.359375 2.410156 -1.082031 2.410156 -0.835938 C 2.410156 -0.554688 2.902344 0 3.214844 0.03125 C 3.429688 0.03125 3.707031 -0.0625 4.015625 -0.03125 C 4.261719 -0.03125 4.542969 0.03125 4.851562 0.03125 C 5.128906 0.03125 5.40625 0 5.683594 0 C 5.964844 0 6.242188 0.0625 6.519531 0.0625 C 6.796875 0.0625 7.074219 0.03125 7.351562 0.03125 C 7.632812 0.03125 7.910156 0.03125 8.1875 0.03125 C 8.464844 0 8.742188 0.03125 9.023438 0 C 9.300781 0 9.578125 0 9.855469 0 C 10.132812 0 10.410156 0.0625 10.660156 0.0625 C 10.96875 0.0625 11.246094 -0.03125 11.492188 -0.03125 C 11.800781 -0.0625 12.050781 -0.03125 12.328125 -0.0625 C 12.605469 -0.0625 12.882812 0.03125 13.160156 0.03125 C 13.46875 0.03125 13.75 -0.0625 13.964844 -0.0625 C 14.367188 -0.09375 14.550781 -0.246094 14.613281 -0.554688 C 14.644531 -0.804688 14.582031 -1.144531 14.398438 -1.421875 C 14.210938 -1.699219 14.027344 -1.976562 13.65625 -2.007812 Z M 13.65625 -2.007812 "/></g></g></g><g fill="#33145e" fill-opacity="1"><g transform="translate(200.988159, 348.693844)"><g><path d="M 13.160156 -19.25 C 13.039062 -19.402344 12.789062 -19.433594 12.480469 -19.464844 C 12.265625 -19.464844 11.957031 -19.433594 11.617188 -19.433594 C 11.371094 -19.433594 11.0625 -19.527344 10.75 -19.527344 C 10.472656 -19.558594 10.195312 -19.464844 9.886719 -19.464844 C 9.609375 -19.464844 9.332031 -19.496094 9.023438 -19.496094 C 8.742188 -19.496094 8.464844 -19.433594 8.15625 -19.433594 C 7.878906 -19.433594 7.601562 -19.558594 7.292969 -19.558594 C 7.011719 -19.558594 6.734375 -19.496094 6.425781 -19.496094 C 6.148438 -19.496094 5.871094 -19.558594 5.5625 -19.558594 C 5.28125 -19.558594 5.003906 -19.527344 4.726562 -19.527344 C 4.417969 -19.527344 4.140625 -19.527344 3.863281 -19.527344 C 3.554688 -19.527344 3.273438 -19.527344 2.996094 -19.527344 C 2.6875 -19.527344 2.410156 -19.558594 2.132812 -19.558594 C 1.792969 -19.589844 1.515625 -19.464844 1.296875 -19.464844 C 1.113281 -19.496094 0.894531 -19.558594 0.804688 -19.464844 C 0.523438 -19.25 0.523438 -18.878906 0.554688 -18.628906 C 0.585938 -18.257812 0.433594 -17.890625 0.742188 -17.640625 C 0.957031 -17.457031 1.359375 -17.519531 1.699219 -17.488281 C 1.882812 -17.488281 2.195312 -17.488281 2.535156 -17.488281 C 2.78125 -17.488281 3.089844 -17.457031 3.367188 -17.457031 C 3.644531 -17.457031 3.953125 -17.457031 4.234375 -17.457031 C 4.511719 -17.425781 4.820312 -17.332031 5.066406 -17.332031 C 5.5625 -17.332031 5.652344 -17.703125 5.933594 -17.394531 C 6.210938 -17.085938 5.964844 -16.992188 5.964844 -16.53125 C 5.964844 -16.28125 5.871094 -15.972656 5.871094 -15.695312 C 5.871094 -15.507812 5.964844 -15.230469 5.964844 -14.890625 C 5.933594 -14.644531 5.902344 -14.367188 5.902344 -14.058594 C 5.902344 -13.808594 5.871094 -13.53125 5.871094 -13.222656 C 5.871094 -12.976562 5.902344 -12.699219 5.902344 -12.390625 C 5.902344 -12.140625 5.933594 -11.863281 5.933594 -11.554688 C 5.933594 -11.308594 5.871094 -11.03125 5.871094 -10.75 C 5.871094 -10.472656 5.871094 -10.195312 5.871094 -9.917969 C 5.871094 -9.640625 5.933594 -9.363281 5.933594 -9.082031 C 5.933594 -8.804688 5.933594 -8.527344 5.933594 -8.25 C 5.933594 -7.972656 5.871094 -7.691406 5.871094 -7.414062 C 5.871094 -7.136719 5.902344 -6.859375 5.902344 -6.613281 C 5.902344 -6.332031 5.902344 -6.054688 5.902344 -5.777344 C 5.902344 -5.5 5.933594 -5.222656 5.933594 -4.941406 C 5.933594 -4.664062 5.902344 -4.386719 5.902344 -4.109375 C 5.902344 -3.832031 5.839844 -3.554688 5.839844 -3.304688 C 5.839844 -2.996094 5.902344 -2.71875 5.902344 -2.472656 C 5.902344 -2.164062 5.933594 -1.882812 5.964844 -1.636719 C 5.964844 -1.296875 5.964844 -1.019531 5.964844 -0.835938 C 5.964844 -0.339844 6.054688 -0.183594 6.210938 -0.09375 C 6.363281 0.03125 6.613281 0.09375 7.011719 0.0625 C 7.414062 0.0625 7.632812 -0.0625 7.753906 -0.15625 C 7.941406 -0.277344 8.03125 -0.464844 8.003906 -0.863281 C 8.003906 -1.144531 7.972656 -1.421875 7.972656 -1.699219 C 7.972656 -1.976562 8.003906 -2.285156 8.003906 -2.5625 C 8.003906 -2.84375 7.941406 -3.152344 7.941406 -3.429688 C 7.941406 -3.707031 7.941406 -3.984375 7.941406 -4.261719 C 7.941406 -4.574219 7.972656 -4.851562 7.972656 -5.128906 C 7.972656 -5.28125 7.941406 -5.5625 7.941406 -5.933594 C 7.941406 -6.179688 7.972656 -6.457031 7.941406 -6.765625 C 7.941406 -7.011719 7.972656 -7.292969 7.972656 -7.601562 C 7.972656 -7.847656 7.910156 -8.125 7.910156 -8.433594 C 7.910156 -8.683594 7.941406 -8.960938 7.941406 -9.238281 C 7.941406 -9.515625 7.878906 -9.792969 7.878906 -10.070312 C 7.878906 -10.351562 7.941406 -10.628906 7.941406 -10.90625 C 7.941406 -11.183594 7.941406 -11.460938 7.941406 -11.742188 C 7.941406 -12.019531 7.878906 -12.265625 7.878906 -12.542969 C 7.878906 -12.820312 7.941406 -13.101562 7.941406 -13.378906 C 7.941406 -13.65625 7.941406 -13.933594 7.941406 -14.179688 C 7.941406 -14.488281 7.847656 -14.738281 7.847656 -15.015625 C 7.847656 -15.292969 7.910156 -15.570312 7.910156 -15.820312 C 7.878906 -16.128906 7.910156 -16.40625 7.910156 -16.652344 C 7.910156 -16.992188 7.847656 -17.332031 7.847656 -17.519531 C 8.03125 -17.519531 8.402344 -17.488281 8.773438 -17.488281 C 9.050781 -17.488281 9.363281 -17.425781 9.703125 -17.425781 C 10.011719 -17.425781 10.320312 -17.519531 10.628906 -17.519531 C 10.9375 -17.519531 11.246094 -17.488281 11.523438 -17.488281 C 11.957031 -17.488281 12.296875 -17.425781 12.449219 -17.425781 C 12.820312 -17.425781 13.039062 -17.578125 13.128906 -17.765625 C 13.253906 -17.949219 13.316406 -18.199219 13.316406 -18.570312 C 13.316406 -18.878906 13.253906 -19.125 13.160156 -19.25 Z M 13.160156 -19.25 "/></g></g></g><g fill="#33145e" fill-opacity="1"><g transform="translate(236.57238, 348.693844)"><g><path d="M 4.511719 -10.660156 C 4.511719 -10.90625 4.542969 -11.183594 4.542969 -11.492188 C 4.542969 -11.769531 4.511719 -12.050781 4.511719 -12.328125 C 4.511719 -12.605469 4.449219 -12.882812 4.449219 -13.191406 C 4.449219 -13.46875 4.511719 -13.75 4.511719 -14.027344 C 4.511719 -14.304688 4.480469 -14.582031 4.480469 -14.859375 C 4.480469 -15.140625 4.574219 -15.449219 4.574219 -15.695312 C 4.574219 -16.003906 4.542969 -16.28125 4.542969 -16.558594 C 4.542969 -16.839844 4.480469 -17.148438 4.480469 -17.394531 C 4.480469 -17.734375 4.511719 -18.011719 4.511719 -18.230469 C 4.511719 -18.722656 4.417969 -19 4.324219 -19.1875 C 4.171875 -19.496094 3.953125 -19.558594 3.492188 -19.589844 C 3.027344 -19.589844 2.71875 -19.589844 2.5625 -19.277344 C 2.472656 -19.09375 2.472656 -18.753906 2.441406 -18.257812 C 2.441406 -18.042969 2.503906 -17.765625 2.503906 -17.425781 C 2.503906 -17.179688 2.503906 -16.898438 2.503906 -16.589844 C 2.503906 -16.34375 2.503906 -16.066406 2.472656 -15.757812 C 2.472656 -15.507812 2.441406 -15.230469 2.441406 -14.921875 C 2.441406 -14.644531 2.472656 -14.367188 2.472656 -14.089844 C 2.472656 -13.808594 2.503906 -13.53125 2.503906 -13.253906 C 2.503906 -12.976562 2.410156 -12.699219 2.410156 -12.421875 C 2.410156 -12.140625 2.503906 -11.863281 2.503906 -11.585938 C 2.503906 -11.308594 2.472656 -11.03125 2.472656 -10.722656 C 2.472656 -10.441406 2.441406 -10.164062 2.441406 -9.886719 C 2.410156 -9.609375 2.503906 -9.332031 2.503906 -9.050781 C 2.503906 -8.773438 2.410156 -8.496094 2.378906 -8.21875 C 2.378906 -7.941406 2.410156 -7.664062 2.410156 -7.382812 C 2.410156 -7.105469 2.472656 -6.828125 2.472656 -6.550781 C 2.472656 -6.273438 2.410156 -5.992188 2.410156 -5.714844 C 2.410156 -5.4375 2.472656 -5.160156 2.472656 -4.882812 C 2.472656 -4.601562 2.441406 -4.324219 2.441406 -4.046875 C 2.441406 -3.769531 2.378906 -3.492188 2.378906 -3.214844 C 2.378906 -2.902344 2.410156 -2.625 2.410156 -2.378906 C 2.410156 -2.070312 2.410156 -1.792969 2.410156 -1.542969 C 2.410156 -1.265625 2.316406 -0.988281 2.316406 -0.523438 C 2.285156 0 2.964844 0.03125 3.152344 0.03125 C 3.429688 0.03125 3.707031 0 3.953125 -0.03125 C 4.261719 -0.09375 4.480469 -0.15625 4.480469 -0.402344 C 4.449219 -0.648438 4.449219 -0.863281 4.449219 -1.050781 C 4.449219 -1.296875 4.511719 -1.515625 4.511719 -1.699219 C 4.511719 -1.914062 4.480469 -2.195312 4.480469 -2.503906 C 4.480469 -2.75 4.542969 -3.027344 4.542969 -3.335938 C 4.542969 -3.582031 4.511719 -3.863281 4.511719 -4.140625 C 4.511719 -4.417969 4.542969 -4.664062 4.542969 -4.941406 C 4.542969 -5.222656 4.511719 -5.5 4.511719 -5.777344 C 4.511719 -6.054688 4.511719 -6.304688 4.511719 -6.582031 C 4.511719 -6.859375 4.480469 -7.136719 4.480469 -7.382812 C 4.480469 -7.664062 4.511719 -7.941406 4.511719 -8.21875 C 4.511719 -8.496094 4.480469 -8.773438 4.480469 -9.023438 C 4.480469 -9.363281 4.574219 -9.609375 4.574219 -9.824219 C 4.574219 -10.011719 4.511719 -10.320312 4.511719 -10.660156 Z M 4.511719 -10.660156 "/></g></g></g><g fill="#33145e" fill-opacity="1"><g transform="translate(265.27147, 348.693844)"><g><path d="M 15.941406 -3.398438 C 15.878906 -3.582031 15.695312 -3.769531 15.480469 -3.984375 C 15.167969 -4.292969 15.015625 -4.480469 14.800781 -4.417969 C 14.644531 -4.386719 14.429688 -4.203125 14.148438 -3.921875 C 13.996094 -3.769531 13.871094 -3.492188 13.65625 -3.273438 C 13.46875 -3.089844 13.191406 -2.964844 12.882812 -2.78125 C 12.636719 -2.65625 12.359375 -2.535156 12.050781 -2.441406 C 11.769531 -2.347656 11.492188 -2.195312 11.183594 -2.132812 C 10.90625 -2.070312 10.597656 -2.070312 10.257812 -2.039062 C 9.980469 -2.039062 9.671875 -2.039062 9.363281 -2.039062 C 9.082031 -2.039062 8.804688 -1.976562 8.527344 -2.039062 C 8.28125 -2.070312 8.03125 -2.253906 7.785156 -2.347656 C 7.539062 -2.441406 7.230469 -2.472656 7.011719 -2.59375 C 6.765625 -2.75 6.550781 -2.902344 6.332031 -3.089844 C 6.117188 -3.273438 5.902344 -3.429688 5.714844 -3.644531 C 5.53125 -3.832031 5.40625 -4.078125 5.253906 -4.324219 C 5.097656 -4.542969 4.914062 -4.757812 4.789062 -5.003906 C 4.664062 -5.222656 4.601562 -5.5 4.511719 -5.777344 C 4.417969 -6.023438 4.324219 -6.273438 4.234375 -6.550781 C 4.171875 -6.796875 4.046875 -7.042969 3.984375 -7.324219 C 3.921875 -7.601562 3.953125 -7.878906 3.921875 -8.15625 C 3.894531 -8.402344 3.800781 -8.683594 3.800781 -8.960938 C 3.769531 -9.238281 3.738281 -9.515625 3.738281 -9.792969 C 3.738281 -10.070312 3.738281 -10.382812 3.769531 -10.660156 C 3.800781 -10.96875 3.832031 -11.246094 3.894531 -11.523438 C 3.921875 -11.832031 4.078125 -12.082031 4.140625 -12.359375 C 4.203125 -12.636719 4.324219 -12.914062 4.417969 -13.191406 C 4.542969 -13.46875 4.601562 -13.75 4.726562 -13.996094 C 4.851562 -14.273438 4.941406 -14.550781 5.066406 -14.800781 C 5.222656 -15.046875 5.4375 -15.261719 5.59375 -15.480469 C 5.777344 -15.726562 5.933594 -15.972656 6.117188 -16.1875 C 6.332031 -16.40625 6.613281 -16.53125 6.828125 -16.714844 C 7.042969 -16.898438 7.292969 -17.054688 7.539062 -17.179688 C 7.785156 -17.332031 8.03125 -17.519531 8.3125 -17.578125 C 8.589844 -17.671875 8.867188 -17.671875 9.175781 -17.671875 C 9.453125 -17.671875 9.730469 -17.703125 9.980469 -17.671875 C 10.257812 -17.640625 10.503906 -17.488281 10.75 -17.425781 C 11.03125 -17.363281 11.277344 -17.238281 11.492188 -17.148438 C 11.769531 -17.023438 11.988281 -16.929688 12.203125 -16.777344 C 12.449219 -16.621094 12.699219 -16.5 12.882812 -16.34375 C 13.101562 -16.160156 13.285156 -15.941406 13.441406 -15.757812 C 13.65625 -15.507812 13.808594 -15.261719 13.933594 -15.109375 C 14.148438 -14.769531 14.367188 -14.550781 14.644531 -14.519531 C 14.859375 -14.519531 15.140625 -14.675781 15.449219 -14.953125 C 15.789062 -15.199219 16.003906 -15.324219 15.910156 -15.820312 C 15.847656 -16.128906 15.757812 -16.652344 15.539062 -16.898438 C 15.417969 -17.023438 15.167969 -17.179688 14.953125 -17.425781 C 14.800781 -17.609375 14.613281 -17.796875 14.398438 -18.011719 C 14.210938 -18.167969 14.027344 -18.382812 13.78125 -18.539062 C 13.5625 -18.660156 13.316406 -18.753906 13.039062 -18.878906 C 12.820312 -18.96875 12.605469 -19.1875 12.359375 -19.277344 C 12.109375 -19.371094 11.832031 -19.433594 11.554688 -19.496094 C 11.308594 -19.558594 11.03125 -19.527344 10.75 -19.589844 C 10.503906 -19.617188 10.226562 -19.679688 9.949219 -19.710938 C 9.703125 -19.742188 9.421875 -19.679688 9.144531 -19.679688 C 8.867188 -19.679688 8.621094 -19.679688 8.34375 -19.648438 C 8.0625 -19.617188 7.785156 -19.617188 7.539062 -19.558594 C 7.261719 -19.496094 7.011719 -19.339844 6.765625 -19.25 C 6.519531 -19.15625 6.273438 -19.03125 6.054688 -18.910156 C 5.808594 -18.753906 5.5625 -18.660156 5.34375 -18.476562 C 5.128906 -18.320312 4.972656 -18.074219 4.789062 -17.890625 C 4.574219 -17.703125 4.417969 -17.519531 4.234375 -17.300781 C 4.046875 -17.117188 3.863281 -16.898438 3.707031 -16.683594 C 3.554688 -16.46875 3.398438 -16.25 3.273438 -16.003906 C 3.121094 -15.789062 2.933594 -15.570312 2.84375 -15.324219 C 2.71875 -15.078125 2.65625 -14.828125 2.535156 -14.550781 C 2.441406 -14.304688 2.285156 -14.089844 2.222656 -13.808594 C 2.132812 -13.5625 2.070312 -13.285156 2.007812 -13.039062 C 1.945312 -12.761719 1.882812 -12.511719 1.824219 -12.234375 C 1.792969 -11.957031 1.761719 -11.679688 1.730469 -11.429688 C 1.699219 -11.152344 1.667969 -10.875 1.667969 -10.597656 C 1.636719 -10.351562 1.667969 -10.070312 1.667969 -9.792969 C 1.667969 -9.515625 1.636719 -9.238281 1.667969 -8.960938 C 1.667969 -8.683594 1.699219 -8.402344 1.730469 -8.125 C 1.761719 -7.847656 1.730469 -7.570312 1.792969 -7.324219 C 1.824219 -7.042969 1.945312 -6.765625 2.007812 -6.519531 C 2.070312 -6.242188 2.132812 -5.964844 2.222656 -5.714844 C 2.316406 -5.4375 2.347656 -5.160156 2.472656 -4.914062 C 2.5625 -4.664062 2.71875 -4.449219 2.84375 -4.203125 C 2.964844 -3.953125 3.058594 -3.675781 3.214844 -3.460938 C 3.367188 -3.214844 3.523438 -2.964844 3.675781 -2.78125 C 3.832031 -2.535156 4.078125 -2.378906 4.261719 -2.195312 C 4.449219 -1.976562 4.601562 -1.730469 4.820312 -1.574219 C 5.035156 -1.390625 5.253906 -1.203125 5.46875 -1.050781 C 5.714844 -0.894531 5.964844 -0.804688 6.210938 -0.679688 C 6.457031 -0.554688 6.703125 -0.464844 6.953125 -0.339844 C 7.230469 -0.246094 7.476562 -0.125 7.722656 -0.0625 C 8.003906 0.03125 8.28125 0.09375 8.527344 0.125 C 8.804688 0.183594 9.082031 0.125 9.363281 0.125 C 9.640625 0.125 9.917969 0.125 10.164062 0.125 C 10.472656 0.09375 10.75 0.09375 11 0.0625 C 11.277344 0 11.554688 -0.09375 11.800781 -0.15625 C 12.082031 -0.214844 12.328125 -0.277344 12.574219 -0.371094 C 12.851562 -0.464844 13.128906 -0.523438 13.347656 -0.617188 C 13.625 -0.742188 13.839844 -0.894531 14.058594 -1.050781 C 14.335938 -1.203125 14.582031 -1.328125 14.769531 -1.484375 C 15.015625 -1.667969 15.230469 -1.855469 15.386719 -2.007812 C 15.601562 -2.222656 15.726562 -2.441406 15.820312 -2.65625 C 15.972656 -2.902344 16.035156 -3.152344 15.941406 -3.398438 Z M 15.941406 -3.398438 "/></g></g></g><g fill="#33145e" fill-opacity="1"><g transform="translate(304.251955, 348.693844)"><g><path d="M 16.808594 -0.679688 C 16.777344 -0.773438 16.652344 -1.050781 16.5 -1.453125 C 16.4375 -1.667969 16.375 -1.945312 16.25 -2.253906 C 16.160156 -2.472656 15.972656 -2.71875 15.878906 -2.996094 C 15.789062 -3.242188 15.695312 -3.523438 15.570312 -3.800781 C 15.480469 -4.046875 15.449219 -4.324219 15.355469 -4.601562 C 15.230469 -4.851562 15.109375 -5.097656 14.984375 -5.375 C 14.890625 -5.625 14.769531 -5.871094 14.644531 -6.148438 C 14.550781 -6.394531 14.488281 -6.703125 14.398438 -6.953125 C 14.304688 -7.230469 14.148438 -7.476562 14.027344 -7.722656 C 13.933594 -8.003906 13.808594 -8.25 13.71875 -8.527344 C 13.625 -8.773438 13.5625 -9.050781 13.46875 -9.332031 C 13.378906 -9.578125 13.253906 -9.855469 13.160156 -10.101562 C 13.070312 -10.382812 12.945312 -10.628906 12.820312 -10.90625 C 12.730469 -11.152344 12.699219 -11.429688 12.574219 -11.710938 C 12.480469 -11.957031 12.296875 -12.203125 12.203125 -12.449219 C 12.109375 -12.730469 12.050781 -13.007812 11.925781 -13.253906 C 11.832031 -13.53125 11.800781 -13.808594 11.679688 -14.058594 C 11.585938 -14.335938 11.429688 -14.550781 11.339844 -14.800781 C 11.214844 -15.078125 11.152344 -15.355469 11.0625 -15.601562 C 10.9375 -15.878906 10.84375 -16.128906 10.75 -16.375 C 10.628906 -16.652344 10.503906 -16.898438 10.382812 -17.148438 C 10.289062 -17.457031 10.164062 -17.703125 10.070312 -17.917969 C 9.917969 -18.257812 9.917969 -18.539062 9.824219 -18.722656 C 9.640625 -19.15625 9.421875 -19.308594 9.269531 -19.433594 C 9.050781 -19.558594 8.835938 -19.527344 8.402344 -19.527344 C 8.15625 -19.496094 8.003906 -19.496094 7.722656 -19.03125 C 7.601562 -18.847656 7.382812 -18.628906 7.230469 -18.230469 C 7.136719 -18.042969 7.105469 -17.765625 6.984375 -17.457031 C 6.890625 -17.210938 6.765625 -16.992188 6.644531 -16.683594 C 6.550781 -16.46875 6.488281 -16.1875 6.394531 -15.910156 C 6.304688 -15.664062 6.179688 -15.417969 6.085938 -15.140625 C 5.992188 -14.890625 5.902344 -14.613281 5.808594 -14.367188 C 5.714844 -14.121094 5.59375 -13.871094 5.5 -13.59375 C 5.40625 -13.347656 5.40625 -13.039062 5.3125 -12.789062 C 5.191406 -12.542969 5.035156 -12.296875 4.941406 -12.050781 C 4.851562 -11.769531 4.820312 -11.492188 4.695312 -11.246094 C 4.601562 -10.96875 4.480469 -10.75 4.355469 -10.472656 C 4.261719 -10.226562 4.203125 -9.949219 4.109375 -9.703125 C 4.015625 -9.421875 3.921875 -9.175781 3.832031 -8.898438 C 3.738281 -8.652344 3.644531 -8.402344 3.554688 -8.125 C 3.460938 -7.878906 3.367188 -7.601562 3.273438 -7.351562 C 3.183594 -7.105469 2.996094 -6.859375 2.902344 -6.613281 C 2.8125 -6.363281 2.8125 -6.054688 2.71875 -5.808594 C 2.625 -5.53125 2.535156 -5.28125 2.441406 -5.035156 C 2.347656 -4.757812 2.164062 -4.542969 2.070312 -4.292969 C 1.976562 -4.015625 1.976562 -3.738281 1.882812 -3.492188 C 1.792969 -3.214844 1.667969 -2.964844 1.574219 -2.71875 C 1.484375 -2.441406 1.359375 -2.195312 1.265625 -1.945312 C 1.175781 -1.667969 1.082031 -1.390625 1.019531 -1.175781 C 0.835938 -0.710938 0.804688 -0.433594 0.804688 -0.402344 C 0.742188 -0.0625 0.863281 0 1.144531 0.03125 C 1.328125 0.03125 1.542969 0 1.792969 0 C 2.195312 0.03125 2.472656 -0.03125 2.71875 -0.433594 C 2.78125 -0.554688 2.902344 -0.863281 3.027344 -1.203125 C 3.121094 -1.453125 3.273438 -1.699219 3.367188 -2.007812 C 3.492188 -2.253906 3.554688 -2.535156 3.644531 -2.8125 C 3.769531 -3.089844 3.832031 -3.367188 3.921875 -3.613281 C 4.078125 -3.984375 4.171875 -4.292969 4.234375 -4.449219 C 4.386719 -4.449219 4.695312 -4.386719 5.066406 -4.355469 C 5.3125 -4.355469 5.59375 -4.417969 5.871094 -4.386719 C 6.148438 -4.386719 6.425781 -4.449219 6.703125 -4.449219 C 6.953125 -4.449219 7.230469 -4.355469 7.507812 -4.355469 C 7.785156 -4.355469 8.0625 -4.386719 8.34375 -4.386719 C 8.589844 -4.355469 8.867188 -4.386719 9.144531 -4.386719 C 9.421875 -4.355469 9.703125 -4.355469 9.949219 -4.355469 C 10.257812 -4.355469 10.503906 -4.386719 10.78125 -4.386719 C 11.0625 -4.386719 11.339844 -4.355469 11.585938 -4.355469 C 11.894531 -4.355469 12.171875 -4.386719 12.390625 -4.386719 C 12.882812 -4.386719 12.851562 -4.542969 13.191406 -4.292969 C 13.53125 -4.046875 13.347656 -4.015625 13.53125 -3.554688 C 13.625 -3.304688 13.6875 -3.027344 13.78125 -2.75 C 13.902344 -2.503906 13.996094 -2.222656 14.121094 -1.976562 C 14.210938 -1.699219 14.367188 -1.453125 14.460938 -1.234375 C 14.613281 -0.863281 14.707031 -0.585938 14.738281 -0.433594 C 14.828125 -0.09375 14.921875 0 15.167969 0.03125 C 15.355469 0.0625 15.601562 0 15.910156 0 C 16.25 0 16.5 0.03125 16.652344 -0.0625 C 16.871094 -0.15625 16.929688 -0.339844 16.808594 -0.679688 Z M 11.617188 -5.992188 C 11.371094 -5.992188 11.089844 -6.054688 10.78125 -6.085938 C 10.503906 -6.085938 10.226562 -6.054688 9.917969 -6.085938 C 9.640625 -6.085938 9.363281 -6.023438 9.082031 -6.023438 C 8.804688 -6.023438 8.527344 -6.023438 8.25 -6.054688 C 7.941406 -6.054688 7.664062 -6.117188 7.382812 -6.117188 C 7.105469 -6.117188 6.828125 -6.117188 6.550781 -6.117188 C 6.242188 -6.117188 5.964844 -6.117188 5.714844 -6.117188 C 5.34375 -6.148438 5.035156 -6.117188 4.851562 -6.117188 C 4.914062 -6.273438 5.003906 -6.613281 5.128906 -6.953125 C 5.222656 -7.167969 5.34375 -7.445312 5.46875 -7.722656 C 5.5625 -7.972656 5.59375 -8.28125 5.683594 -8.558594 C 5.777344 -8.804688 5.992188 -9.050781 6.085938 -9.332031 C 6.179688 -9.578125 6.210938 -9.886719 6.304688 -10.164062 C 6.394531 -10.410156 6.519531 -10.660156 6.613281 -10.9375 C 6.703125 -11.214844 6.796875 -11.492188 6.890625 -11.742188 C 6.984375 -12.019531 7.074219 -12.296875 7.167969 -12.542969 C 7.261719 -12.820312 7.351562 -13.101562 7.445312 -13.347656 C 7.539062 -13.625 7.664062 -13.871094 7.753906 -14.148438 C 7.847656 -14.429688 7.847656 -14.707031 7.941406 -14.953125 C 8.03125 -15.261719 8.21875 -15.507812 8.28125 -15.726562 C 8.433594 -16.097656 8.496094 -16.40625 8.589844 -16.558594 C 8.683594 -16.40625 8.804688 -16.097656 8.960938 -15.757812 C 9.050781 -15.507812 9.175781 -15.261719 9.300781 -14.953125 C 9.390625 -14.707031 9.515625 -14.460938 9.609375 -14.179688 C 9.703125 -13.902344 9.792969 -13.625 9.917969 -13.347656 C 10.011719 -13.070312 10.101562 -12.820312 10.195312 -12.542969 C 10.289062 -12.265625 10.320312 -11.957031 10.410156 -11.679688 C 10.503906 -11.402344 10.691406 -11.183594 10.78125 -10.90625 C 10.875 -10.628906 10.96875 -10.351562 11.0625 -10.070312 C 11.152344 -9.824219 11.152344 -9.515625 11.246094 -9.238281 C 11.339844 -8.960938 11.492188 -8.710938 11.585938 -8.464844 C 11.679688 -8.15625 11.742188 -7.878906 11.832031 -7.632812 C 11.957031 -7.324219 12.019531 -7.042969 12.109375 -6.828125 C 12.234375 -6.457031 12.359375 -6.179688 12.449219 -6.023438 C 12.265625 -6.023438 11.988281 -5.992188 11.617188 -5.992188 Z M 11.617188 -5.992188 "/></g></g></g></svg>