<svg xmlns="http://www.w3.org/2000/svg" xmlns:xlink="http://www.w3.org/1999/xlink" width="500" zoomAndPan="magnify" viewBox="0 0 375 374.999991" height="500" preserveAspectRatio="xMidYMid meet" version="1.0"><defs><clipPath id="e3bb90d0e2"><path d="M 63 63 L 318 63 L 318 316 L 63 316 Z M 63 63 " clip-rule="nonzero"/></clipPath><clipPath id="c01b5bd21d"><path d="M 302.109375 -9.480469 L 328.792969 308.902344 L -8.273438 337.152344 L -34.957031 18.769531 Z M 302.109375 -9.480469 " clip-rule="nonzero"/></clipPath><clipPath id="37e60476d7"><path d="M 302.109375 -9.480469 L 328.792969 308.902344 L -8.273438 337.152344 L -34.957031 18.769531 Z M 302.109375 -9.480469 " clip-rule="nonzero"/></clipPath><clipPath id="c010a64df2"><path d="M 196 151 L 272.144531 151 L 272.144531 229 L 196 229 Z M 196 151 " clip-rule="nonzero"/></clipPath><clipPath id="b05aa596bc"><path d="M 85 131 L 210 131 L 210 293.816406 L 85 293.816406 Z M 85 131 " clip-rule="nonzero"/></clipPath></defs><g clip-path="url(#e3bb90d0e2)"><g clip-path="url(#c01b5bd21d)"><g clip-path="url(#37e60476d7)"><path fill="#33145e" d="M 106.648438 261.597656 C 120.980469 277.605469 138.097656 291.050781 156.753906 301.714844 C 175.277344 312.304688 198.082031 320.195312 217.582031 311.542969 C 229.359375 306.3125 237.941406 295.835938 248.902344 289.058594 C 265.707031 278.660156 287.917969 277.003906 301.445312 262.601562 C 311.300781 252.117188 314.320312 237.054688 316 222.757812 C 318.289062 203.320312 318.042969 181.304688 304.492188 167.183594 C 291.933594 154.097656 272.121094 152.070312 255.289062 145.316406 C 234.527344 136.980469 231.738281 121.84375 224.984375 103.476562 C 187.007812 0.175781 -27.429688 111.800781 106.648438 261.597656 " fill-opacity="1" fill-rule="nonzero"/></g></g></g><g clip-path="url(#c010a64df2)"><path fill="#ffffff" d="M 272.269531 166.617188 C 270 181.835938 252.640625 187.539062 240.855469 193.46875 C 232.039062 197.125 229.546875 197.476562 220.902344 199.441406 C 231.308594 206.132812 232.367188 218.230469 226.851562 223.742188 C 219.472656 231.492188 205.316406 229.261719 200.320312 220.769531 C 199.578125 219.773438 202.304688 219.527344 203.542969 220.023438 C 215.257812 224.242188 226.417969 213.949219 217.429688 203.160156 C 208.621094 194.351562 213.316406 196.472656 233.945312 186.988281 C 250.785156 179.253906 261.429688 174.710938 263.304688 163.238281 C 265.90625 146.332031 220.050781 155.65625 197.433594 192.144531 C 197.078125 192.71875 196.195312 192.265625 196.449219 191.640625 C 213.183594 150.265625 270.652344 138.15625 272.269531 166.617188 " fill-opacity="1" fill-rule="nonzero"/></g><g clip-path="url(#b05aa596bc)"><path fill="#ffffff" d="M 138.257812 204.976562 C 138.0625 205.394531 137.660156 205.390625 137.332031 205.386719 C 136.128906 205.367188 134.902344 205.410156 133.71875 205.21875 C 117.664062 201.421875 98.902344 194.84375 90.054688 180.171875 C 87.648438 176.1875 86.113281 171.789062 85.910156 167.195312 C 83.953125 123.148438 168.003906 113.476562 185.195312 172.234375 C 187.425781 179.847656 188.011719 185.679688 188.238281 186.65625 C 188.992188 185.792969 201.894531 158.742188 198.773438 149.171875 C 197.59375 145.632812 196.351562 142.660156 194.121094 139.433594 C 188.980469 130.441406 215.792969 125.359375 207.636719 154.632812 C 201.753906 174.261719 200.707031 174.171875 189.347656 195.175781 C 189.347656 195.175781 194.480469 237.851562 157.71875 288.707031 C 155.734375 291.449219 154.71875 292.902344 152.796875 293.308594 C 151.171875 293.652344 150.113281 292.59375 152.054688 290.847656 C 167.222656 277.195312 185 236.960938 185 202.429688 C 184.980469 202.457031 149.3125 254.636719 121.332031 256.691406 C 114.273438 257.21875 106.339844 254.242188 103.613281 247.796875 C 97.757812 233.523438 118.628906 208.710938 148.867188 206.894531 C 160.734375 206.183594 162.652344 213.902344 160.148438 214.320312 C 145.804688 216.546875 132.144531 221.246094 122.046875 231.597656 C 106.324219 249.011719 113.375 255.53125 125.667969 253.511719 C 142.949219 248.074219 155.75 233.375 167.707031 219.699219 C 175.40625 210.039062 179.269531 202.964844 184.453125 194.109375 C 185.15625 192.914062 183.523438 182.851562 183.191406 181.132812 C 169.671875 111.570312 86.699219 131.246094 89.644531 168.855469 C 91.945312 198.246094 138.050781 204.402344 138.257812 204.976562 " fill-opacity="1" fill-rule="nonzero"/></g></svg>