<svg xmlns="http://www.w3.org/2000/svg" xmlns:xlink="http://www.w3.org/1999/xlink" width="500" zoomAndPan="magnify" viewBox="0 0 375 374.999991" height="500" preserveAspectRatio="xMidYMid meet" version="1.0"><defs><clipPath id="51ee8f2e16"><path d="M 208 120 L 313.8125 120 L 313.8125 229 L 208 229 Z M 208 120 " clip-rule="nonzero"/></clipPath><clipPath id="d06a17e7eb"><path d="M 54 92 L 227 92 L 227 319.867188 L 54 319.867188 Z M 54 92 " clip-rule="nonzero"/></clipPath></defs><g clip-path="url(#51ee8f2e16)"><path fill="#33145e" d="M 314.085938 142.40625 C 310.917969 163.636719 286.703125 171.59375 270.265625 179.863281 C 257.96875 184.960938 254.488281 185.457031 242.429688 188.195312 C 256.949219 197.527344 258.425781 214.402344 250.730469 222.09375 C 240.4375 232.902344 220.691406 229.792969 213.71875 217.941406 C 212.683594 216.558594 216.488281 216.210938 218.214844 216.90625 C 234.558594 222.789062 250.125 208.429688 237.585938 193.382812 C 225.300781 181.09375 231.851562 184.050781 260.625 170.824219 C 284.113281 160.035156 298.964844 153.695312 301.578125 137.695312 C 305.207031 114.113281 241.246094 127.117188 209.691406 178.015625 C 209.195312 178.8125 207.96875 178.183594 208.320312 177.3125 C 231.667969 119.597656 311.828125 102.707031 314.085938 142.40625 " fill-opacity="1" fill-rule="nonzero"/></g><g clip-path="url(#d06a17e7eb)"><path fill="#33145e" d="M 127.148438 195.914062 C 126.875 196.5 126.316406 196.496094 125.855469 196.488281 C 124.175781 196.457031 122.46875 196.519531 120.820312 196.25 C 98.421875 190.953125 72.25 181.78125 59.910156 161.316406 C 56.550781 155.757812 54.414062 149.617188 54.128906 143.210938 C 51.394531 81.769531 168.640625 68.28125 192.625 150.242188 C 195.734375 160.863281 196.554688 168.996094 196.867188 170.359375 C 197.917969 169.15625 215.917969 131.421875 211.5625 118.070312 C 209.917969 113.136719 208.1875 108.984375 205.074219 104.488281 C 197.902344 91.941406 235.300781 84.855469 223.929688 125.6875 C 215.71875 153.070312 214.261719 152.941406 198.417969 182.242188 C 198.417969 182.242188 205.574219 241.773438 154.292969 312.710938 C 151.527344 316.535156 150.105469 318.5625 147.429688 319.128906 C 145.160156 319.609375 143.683594 318.136719 146.390625 315.699219 C 167.554688 296.652344 192.351562 240.527344 192.351562 192.363281 C 192.320312 192.398438 142.570312 265.183594 103.539062 268.054688 C 93.691406 268.789062 82.625 264.636719 78.820312 255.644531 C 70.652344 235.738281 99.765625 201.121094 141.945312 198.59375 C 158.503906 197.601562 161.175781 208.367188 157.683594 208.949219 C 137.675781 212.054688 118.621094 218.609375 104.539062 233.050781 C 82.605469 257.339844 92.441406 266.433594 109.589844 263.621094 C 133.695312 256.03125 151.550781 235.527344 168.230469 216.453125 C 178.96875 202.976562 184.355469 193.109375 191.589844 180.757812 C 192.566406 179.085938 190.292969 165.054688 189.824219 162.652344 C 170.96875 65.617188 55.230469 93.070312 59.335938 145.527344 C 62.546875 186.523438 126.859375 195.117188 127.148438 195.914062 " fill-opacity="1" fill-rule="nonzero"/></g></svg>