<svg xmlns="http://www.w3.org/2000/svg" xmlns:xlink="http://www.w3.org/1999/xlink" width="130" zoomAndPan="magnify" viewBox="0 0 97.5 97.499997" height="130" preserveAspectRatio="xMidYMid meet" version="1.0"><defs><clipPath id="968de9a1a7"><path d="M 17.085938 19.402344 L 50.167969 19.402344 L 50.167969 48.5 L 17.085938 48.5 Z M 17.085938 19.402344 " clip-rule="nonzero"/></clipPath><clipPath id="214995d62c"><path d="M 21.5625 19.402344 L 45.664062 19.402344 C 48.136719 19.402344 50.144531 21.40625 50.144531 23.878906 L 50.144531 44.023438 C 50.144531 46.496094 48.136719 48.5 45.664062 48.5 L 21.5625 48.5 C 19.09375 48.5 17.085938 46.496094 17.085938 44.023438 L 17.085938 23.878906 C 17.085938 21.40625 19.09375 19.402344 21.5625 19.402344 Z M 21.5625 19.402344 " clip-rule="nonzero"/></clipPath><clipPath id="57966db6da"><path d="M 17.085938 60.140625 L 28.355469 60.140625 L 28.355469 78.539062 L 17.085938 78.539062 Z M 17.085938 60.140625 " clip-rule="nonzero"/></clipPath><clipPath id="e655a71135"><path d="M 21.5625 60.140625 L 23.878906 60.140625 C 26.351562 60.140625 28.355469 62.144531 28.355469 64.617188 L 28.355469 74.019531 C 28.355469 76.492188 26.351562 78.496094 23.878906 78.496094 L 21.5625 78.496094 C 19.09375 78.496094 17.085938 76.492188 17.085938 74.019531 L 17.085938 64.617188 C 17.085938 62.144531 19.09375 60.140625 21.5625 60.140625 Z M 21.5625 60.140625 " clip-rule="nonzero"/></clipPath><clipPath id="565f0f6513"><path d="M 31 61 L 45 61 L 45 80 L 31 80 Z M 31 61 " clip-rule="nonzero"/></clipPath><clipPath id="9ae35995a8"><path d="M 30.378906 62.6875 L 41.355469 60.140625 L 45.515625 78.0625 L 34.539062 80.609375 Z M 30.378906 62.6875 " clip-rule="nonzero"/></clipPath><clipPath id="7b8c60a54e"><path d="M 34.742188 61.675781 L 36.996094 61.152344 C 39.402344 60.59375 41.808594 62.09375 42.367188 64.503906 L 44.492188 73.660156 C 45.054688 76.070312 43.554688 78.476562 41.144531 79.035156 L 38.890625 79.558594 C 36.484375 80.117188 34.078125 78.617188 33.519531 76.207031 L 31.394531 67.050781 C 30.832031 64.640625 32.332031 62.234375 34.742188 61.675781 Z M 34.742188 61.675781 " clip-rule="nonzero"/></clipPath><clipPath id="60d1fd3807"><path d="M 56.066406 45.589844 L 83 45.589844 L 83 70.355469 L 56.066406 70.355469 Z M 56.066406 45.589844 " clip-rule="nonzero"/></clipPath><clipPath id="5a4510e700"><path d="M 60.542969 45.589844 L 78.527344 45.589844 C 81 45.589844 83.003906 47.59375 83.003906 50.066406 L 83.003906 65.878906 C 83.003906 68.351562 81 70.355469 78.527344 70.355469 L 60.542969 70.355469 C 58.070312 70.355469 56.066406 68.351562 56.066406 65.878906 L 56.066406 50.066406 C 56.066406 47.59375 58.070312 45.589844 60.542969 45.589844 Z M 60.542969 45.589844 " clip-rule="nonzero"/></clipPath><clipPath id="76b5a2b53d"><path d="M 49 50 L 65 50 L 65 65 L 49 65 Z M 49 50 " clip-rule="nonzero"/></clipPath><clipPath id="b14ae0809c"><path d="M 58.378906 48.503906 L 66.226562 57.207031 L 55.582031 66.804688 L 47.734375 58.097656 Z M 58.378906 48.503906 " clip-rule="nonzero"/></clipPath><clipPath id="6d470206a2"><path d="M 61.375 51.828125 L 63.226562 53.882812 C 64.882812 55.71875 64.738281 58.550781 62.902344 60.207031 L 58.917969 63.796875 C 57.082031 65.453125 54.25 65.304688 52.59375 63.46875 L 50.742188 61.414062 C 49.085938 59.578125 49.230469 56.746094 51.070312 55.089844 L 55.054688 51.5 C 56.890625 49.84375 59.71875 49.992188 61.375 51.828125 Z M 61.375 51.828125 " clip-rule="nonzero"/></clipPath><clipPath id="ac0ea1d61f"><path d="M 7.878906 7.878906 L 59 7.878906 L 59 59 L 7.878906 59 Z M 7.878906 7.878906 " clip-rule="nonzero"/></clipPath><clipPath id="180fe01799"><path d="M 43 33 L 89.210938 33 L 89.210938 79 L 43 79 Z M 43 33 " clip-rule="nonzero"/></clipPath><clipPath id="7b8d859217"><path d="M 9 54 L 51 54 L 51 89.210938 L 9 89.210938 Z M 9 54 " clip-rule="nonzero"/></clipPath></defs><g clip-path="url(#968de9a1a7)"><g clip-path="url(#214995d62c)"><path fill="#000000" d="M 17.085938 19.402344 L 50.167969 19.402344 L 50.167969 48.5 L 17.085938 48.5 Z M 17.085938 19.402344 " fill-opacity="1" fill-rule="nonzero"/></g></g><g clip-path="url(#57966db6da)"><g clip-path="url(#e655a71135)"><path fill="#000000" d="M 17.085938 60.140625 L 28.355469 60.140625 L 28.355469 78.496094 L 17.085938 78.496094 Z M 17.085938 60.140625 " fill-opacity="1" fill-rule="nonzero"/></g></g><g clip-path="url(#565f0f6513)"><g clip-path="url(#9ae35995a8)"><g clip-path="url(#7b8c60a54e)"><path fill="#000000" d="M 30.378906 62.6875 L 41.355469 60.140625 L 45.503906 78.019531 L 34.53125 80.566406 Z M 30.378906 62.6875 " fill-opacity="1" fill-rule="nonzero"/></g></g></g><g clip-path="url(#60d1fd3807)"><g clip-path="url(#5a4510e700)"><path fill="#000000" d="M 56.066406 45.589844 L 82.960938 45.589844 L 82.960938 70.355469 L 56.066406 70.355469 Z M 56.066406 45.589844 " fill-opacity="1" fill-rule="nonzero"/></g></g><g clip-path="url(#76b5a2b53d)"><g clip-path="url(#b14ae0809c)"><g clip-path="url(#6d470206a2)"><path fill="#000000" d="M 58.378906 48.503906 L 66.226562 57.207031 L 55.582031 66.804688 L 47.734375 58.097656 Z M 58.378906 48.503906 " fill-opacity="1" fill-rule="nonzero"/></g></g></g><g clip-path="url(#ac0ea1d61f)"><path fill="#f16aa7" d="M 58.648438 33.257812 C 58.648438 19.261719 47.265625 7.878906 33.273438 7.878906 C 19.28125 7.878906 7.894531 19.261719 7.894531 33.257812 C 7.894531 47.25 19.28125 58.632812 33.273438 58.632812 C 47.265625 58.632812 58.648438 47.25 58.648438 33.257812 Z M 25.710938 37.664062 C 25.867188 37.867188 25.980469 38.09375 26.050781 38.34375 C 26.117188 38.59375 26.136719 38.847656 26.105469 39.105469 C 26.074219 39.363281 25.996094 39.605469 25.871094 39.832031 C 25.742188 40.054688 25.578125 40.25 25.375 40.410156 C 25.175781 40.574219 24.949219 40.691406 24.699219 40.761719 C 24.453125 40.835938 24.199219 40.859375 23.941406 40.832031 C 23.683594 40.804688 23.441406 40.730469 23.210938 40.609375 C 22.984375 40.484375 22.789062 40.324219 22.625 40.125 L 18.125 34.484375 C 17.984375 34.3125 17.878906 34.117188 17.800781 33.90625 C 17.726562 33.695312 17.691406 33.476562 17.691406 33.253906 C 17.691406 33.03125 17.726562 32.8125 17.800781 32.601562 C 17.878906 32.390625 17.984375 32.199219 18.125 32.023438 L 22.625 26.382812 C 22.785156 26.175781 22.980469 26.011719 23.210938 25.882812 C 23.441406 25.753906 23.6875 25.675781 23.949219 25.644531 C 24.207031 25.613281 24.464844 25.632812 24.71875 25.707031 C 24.972656 25.78125 25.199219 25.898438 25.40625 26.0625 C 25.613281 26.226562 25.777344 26.421875 25.902344 26.652344 C 26.03125 26.882812 26.109375 27.128906 26.136719 27.390625 C 26.164062 27.652344 26.144531 27.910156 26.070312 28.160156 C 25.996094 28.414062 25.875 28.640625 25.710938 28.847656 L 22.191406 33.253906 Z M 36.496094 28.054688 L 33.910156 39.335938 C 33.859375 39.550781 33.777344 39.757812 33.660156 39.945312 C 33.539062 40.136719 33.394531 40.300781 33.21875 40.441406 C 33.042969 40.578125 32.851562 40.683594 32.640625 40.757812 C 32.429688 40.832031 32.210938 40.867188 31.988281 40.867188 C 30.757812 40.898438 29.753906 39.644531 30.0625 38.453125 L 32.648438 27.175781 C 33.289062 24.644531 37.015625 25.507812 36.496094 28.054688 Z M 48.421875 34.488281 L 43.90625 40.128906 C 43.742188 40.332031 43.546875 40.496094 43.316406 40.625 C 43.089844 40.75 42.84375 40.828125 42.582031 40.855469 C 42.324219 40.886719 42.066406 40.863281 41.816406 40.792969 C 41.5625 40.71875 41.335938 40.601562 41.132812 40.4375 C 40.925781 40.273438 40.761719 40.078125 40.636719 39.847656 C 40.507812 39.617188 40.433594 39.371094 40.402344 39.113281 C 40.375 38.851562 40.394531 38.597656 40.46875 38.34375 C 40.542969 38.09375 40.660156 37.863281 40.824219 37.660156 L 44.351562 33.253906 L 40.824219 28.847656 C 40.660156 28.644531 40.542969 28.414062 40.46875 28.164062 C 40.398438 27.914062 40.375 27.65625 40.40625 27.398438 C 40.433594 27.136719 40.511719 26.890625 40.636719 26.664062 C 40.765625 26.433594 40.929688 26.238281 41.132812 26.074219 C 41.335938 25.910156 41.566406 25.792969 41.816406 25.71875 C 42.066406 25.648438 42.324219 25.625 42.585938 25.652344 C 42.84375 25.683594 43.089844 25.761719 43.316406 25.886719 C 43.546875 26.011719 43.742188 26.175781 43.90625 26.382812 L 48.417969 32.019531 C 48.558594 32.195312 48.667969 32.390625 48.742188 32.601562 C 48.816406 32.8125 48.855469 33.03125 48.855469 33.253906 C 48.855469 33.476562 48.816406 33.695312 48.742188 33.90625 C 48.667969 34.121094 48.5625 34.3125 48.421875 34.488281 Z M 48.421875 34.488281 " fill-opacity="1" fill-rule="nonzero"/></g><g clip-path="url(#180fe01799)"><path fill="#f16aa7" d="M 66.261719 33.257812 C 64.574219 33.257812 62.90625 33.445312 61.257812 33.8125 C 61.050781 33.859375 60.875 33.964844 60.738281 34.128906 C 60.601562 34.292969 60.527344 34.480469 60.515625 34.691406 C 60.058594 44.925781 53.53125 54.203125 44.203125 58.242188 C 44.011719 58.328125 43.859375 58.464844 43.757812 58.652344 C 43.652344 58.835938 43.617188 59.035156 43.644531 59.246094 C 45.195312 70.472656 54.917969 78.9375 66.261719 78.9375 C 78.855469 78.9375 89.101562 68.691406 89.101562 56.097656 C 89.101562 43.503906 78.855469 33.257812 66.261719 33.257812 Z M 57.878906 60.507812 C 58.03125 60.707031 58.144531 60.929688 58.210938 61.175781 C 58.277344 61.417969 58.292969 61.667969 58.257812 61.917969 C 58.226562 62.171875 58.144531 62.40625 58.019531 62.625 C 57.890625 62.84375 57.726562 63.03125 57.523438 63.183594 C 57.324219 63.339844 57.097656 63.449219 56.855469 63.511719 C 56.609375 63.578125 56.359375 63.589844 56.109375 63.554688 C 55.859375 63.519531 55.621094 63.4375 55.40625 63.308594 C 55.1875 63.179688 55 63.015625 54.847656 62.8125 L 51.226562 58.054688 C 50.875 57.589844 50.761719 57.074219 50.882812 56.507812 C 53.207031 54.753906 55.21875 52.699219 56.925781 50.335938 C 57.140625 50.398438 57.335938 50.496094 57.515625 50.628906 C 57.71875 50.78125 57.882812 50.964844 58.007812 51.183594 C 58.136719 51.402344 58.214844 51.636719 58.25 51.886719 C 58.285156 52.136719 58.269531 52.382812 58.203125 52.628906 C 58.140625 52.871094 58.03125 53.09375 57.878906 53.292969 L 55.132812 56.898438 Z M 66.039062 65.785156 C 65.785156 65.785156 65.542969 65.734375 65.308594 65.640625 C 65.078125 65.542969 64.871094 65.40625 64.691406 65.226562 C 64.515625 65.046875 64.375 64.84375 64.28125 64.609375 C 64.183594 64.375 64.136719 64.132812 64.136719 63.882812 C 64.136719 63.628906 64.183594 63.386719 64.28125 63.152344 C 64.375 62.917969 64.515625 62.714844 64.691406 62.535156 C 64.871094 62.355469 65.078125 62.21875 65.308594 62.121094 C 65.542969 62.027344 65.785156 61.976562 66.039062 61.976562 C 66.289062 61.976562 66.535156 62.027344 66.765625 62.121094 C 67 62.21875 67.207031 62.355469 67.382812 62.535156 C 67.5625 62.714844 67.699219 62.917969 67.796875 63.152344 C 67.894531 63.386719 67.941406 63.628906 67.941406 63.882812 C 67.941406 64.132812 67.894531 64.375 67.796875 64.609375 C 67.699219 64.84375 67.5625 65.046875 67.382812 65.226562 C 67.207031 65.40625 67 65.542969 66.765625 65.640625 C 66.535156 65.738281 66.289062 65.785156 66.039062 65.785156 Z M 67.941406 55.488281 L 67.941406 56.902344 C 67.941406 57.15625 67.894531 57.398438 67.796875 57.628906 C 67.699219 57.863281 67.5625 58.070312 67.382812 58.25 C 67.207031 58.425781 67 58.5625 66.765625 58.660156 C 66.535156 58.757812 66.289062 58.804688 66.039062 58.804688 C 65.785156 58.804688 65.542969 58.757812 65.308594 58.660156 C 65.078125 58.5625 64.871094 58.425781 64.691406 58.25 C 64.515625 58.070312 64.375 57.863281 64.28125 57.628906 C 64.183594 57.398438 64.136719 57.15625 64.136719 56.902344 L 64.136719 55.09375 C 64.136719 54.753906 64.191406 54.421875 64.296875 54.097656 C 64.402344 53.777344 64.550781 53.476562 64.75 53.203125 C 64.949219 52.929688 65.1875 52.691406 65.460938 52.488281 C 65.730469 52.289062 66.03125 52.132812 66.351562 52.027344 C 66.972656 51.941406 67.292969 50.550781 66.410156 50.28125 C 65.648438 50.046875 65.148438 50.496094 65.109375 51.148438 C 65.109375 51.398438 65.058594 51.640625 64.964844 51.875 C 64.867188 52.109375 64.730469 52.316406 64.550781 52.492188 C 64.371094 52.671875 64.167969 52.808594 63.933594 52.90625 C 63.699219 53.003906 63.457031 53.050781 63.203125 53.050781 C 62.953125 53.050781 62.710938 53.003906 62.476562 52.90625 C 62.242188 52.808594 62.039062 52.671875 61.859375 52.492188 C 61.679688 52.316406 61.542969 52.109375 61.445312 51.875 C 61.347656 51.640625 61.300781 51.398438 61.300781 51.148438 C 61.230469 47.972656 64.597656 45.609375 67.617188 46.667969 C 71.652344 48.085938 71.8125 53.871094 67.941406 55.488281 Z M 81.300781 58.054688 L 77.664062 62.816406 C 77.511719 63.019531 77.328125 63.1875 77.109375 63.316406 C 76.890625 63.449219 76.65625 63.53125 76.402344 63.566406 C 76.148438 63.601562 75.902344 63.589844 75.652344 63.523438 C 75.40625 63.460938 75.183594 63.347656 74.980469 63.195312 C 74.777344 63.039062 74.613281 62.851562 74.484375 62.632812 C 74.359375 62.410156 74.277344 62.171875 74.246094 61.921875 C 74.214844 61.667969 74.234375 61.417969 74.300781 61.171875 C 74.371094 60.925781 74.484375 60.703125 74.640625 60.503906 L 77.390625 56.902344 L 74.640625 53.296875 C 74.484375 53.097656 74.371094 52.875 74.300781 52.628906 C 74.234375 52.382812 74.214844 52.132812 74.246094 51.882812 C 74.277344 51.628906 74.359375 51.390625 74.484375 51.171875 C 74.613281 50.949219 74.777344 50.761719 74.980469 50.609375 C 75.183594 50.453125 75.40625 50.34375 75.652344 50.277344 C 75.902344 50.214844 76.148438 50.199219 76.402344 50.234375 C 76.65625 50.273438 76.890625 50.355469 77.109375 50.484375 C 77.328125 50.617188 77.511719 50.78125 77.664062 50.988281 L 81.300781 55.746094 C 81.558594 56.085938 81.691406 56.472656 81.691406 56.902344 C 81.691406 57.332031 81.558594 57.714844 81.300781 58.054688 Z M 81.300781 58.054688 " fill-opacity="1" fill-rule="nonzero"/></g><g clip-path="url(#7b8d859217)"><path fill="#f16aa7" d="M 40.683594 59.507812 C 32.296875 61.921875 22.878906 59.980469 16.125 54.453125 C 15.925781 54.292969 15.695312 54.222656 15.4375 54.246094 C 15.183594 54.269531 14.96875 54.378906 14.800781 54.574219 C 13.1875 56.46875 11.953125 58.582031 11.089844 60.917969 C 10.230469 63.25 9.800781 65.664062 9.796875 68.152344 C 9.796875 79.695312 19.191406 89.085938 30.734375 89.085938 C 31.785156 89.089844 32.828125 89.015625 33.867188 88.863281 C 34.902344 88.710938 35.921875 88.480469 36.925781 88.171875 C 37.929688 87.863281 38.902344 87.480469 39.847656 87.027344 C 40.792969 86.570312 41.699219 86.046875 42.566406 85.457031 C 43.433594 84.863281 44.25 84.210938 45.015625 83.496094 C 45.785156 82.777344 46.492188 82.007812 47.144531 81.1875 C 47.792969 80.363281 48.378906 79.496094 48.898438 78.585938 C 49.417969 77.675781 49.867188 76.730469 50.242188 75.75 C 50.316406 75.5625 50.328125 75.371094 50.28125 75.175781 C 50.234375 74.984375 50.136719 74.820312 49.984375 74.6875 C 47.847656 72.820312 46.082031 70.648438 44.695312 68.171875 C 43.304688 65.699219 42.367188 63.0625 41.882812 60.265625 C 41.859375 60.132812 41.808594 60.011719 41.734375 59.898438 C 41.660156 59.785156 41.566406 59.695312 41.449219 59.621094 C 41.335938 59.550781 41.214844 59.503906 41.078125 59.484375 C 40.945312 59.464844 40.816406 59.472656 40.683594 59.507812 Z M 24.390625 71.164062 L 24.390625 72.75 C 24.390625 72.882812 24.4375 72.992188 24.53125 73.085938 C 24.621094 73.179688 24.734375 73.226562 24.867188 73.226562 C 25.117188 73.226562 25.363281 73.273438 25.59375 73.371094 C 25.828125 73.46875 26.035156 73.605469 26.210938 73.785156 C 26.390625 73.960938 26.527344 74.167969 26.625 74.402344 C 26.722656 74.632812 26.769531 74.878906 26.769531 75.128906 C 26.769531 75.382812 26.722656 75.625 26.625 75.859375 C 26.527344 76.089844 26.390625 76.296875 26.210938 76.476562 C 26.035156 76.652344 25.828125 76.792969 25.59375 76.886719 C 25.363281 76.984375 25.117188 77.03125 24.867188 77.03125 C 24.585938 77.03125 24.308594 77.003906 24.03125 76.949219 C 23.753906 76.894531 23.488281 76.8125 23.226562 76.707031 C 22.96875 76.597656 22.722656 76.464844 22.488281 76.308594 C 22.253906 76.152344 22.039062 75.976562 21.839844 75.777344 C 21.640625 75.578125 21.464844 75.363281 21.308594 75.128906 C 21.152344 74.894531 21.019531 74.648438 20.910156 74.386719 C 20.804688 74.128906 20.722656 73.863281 20.667969 73.585938 C 20.613281 73.308594 20.585938 73.03125 20.585938 72.75 L 20.585938 71.164062 C 20.585938 71.03125 20.539062 70.921875 20.445312 70.828125 C 20.351562 70.734375 20.238281 70.6875 20.109375 70.6875 C 19.855469 70.6875 19.613281 70.640625 19.378906 70.542969 C 19.148438 70.445312 18.941406 70.308594 18.761719 70.132812 C 18.582031 69.953125 18.445312 69.746094 18.351562 69.515625 C 18.253906 69.28125 18.203125 69.039062 18.203125 68.785156 C 18.203125 68.53125 18.253906 68.289062 18.351562 68.058594 C 18.445312 67.824219 18.582031 67.617188 18.761719 67.441406 C 18.941406 67.261719 19.148438 67.125 19.378906 67.027344 C 19.613281 66.929688 19.855469 66.882812 20.109375 66.882812 C 20.238281 66.882812 20.351562 66.835938 20.445312 66.742188 C 20.539062 66.648438 20.585938 66.539062 20.585938 66.40625 L 20.585938 64.820312 C 20.585938 64.367188 20.65625 63.921875 20.796875 63.492188 C 20.9375 63.0625 21.140625 62.664062 21.410156 62.296875 C 21.675781 61.929688 21.996094 61.613281 22.363281 61.347656 C 22.730469 61.082031 23.132812 60.878906 23.5625 60.742188 C 24.554688 61.097656 25.5625 61.394531 26.589844 61.640625 C 26.65625 61.785156 26.707031 61.9375 26.734375 62.09375 C 26.765625 62.25 26.777344 62.410156 26.765625 62.570312 C 26.757812 62.730469 26.726562 62.886719 26.675781 63.035156 C 26.628906 63.1875 26.558594 63.332031 26.472656 63.46875 C 26.386719 63.601562 26.285156 63.726562 26.167969 63.835938 C 26.050781 63.945312 25.921875 64.035156 25.78125 64.113281 C 25.640625 64.191406 25.496094 64.246094 25.339844 64.285156 C 25.183594 64.324219 25.027344 64.34375 24.867188 64.34375 C 24.734375 64.34375 24.621094 64.390625 24.53125 64.484375 C 24.4375 64.578125 24.390625 64.6875 24.390625 64.820312 L 24.390625 66.40625 C 24.390625 67.273438 24.152344 68.066406 23.667969 68.785156 C 24.152344 69.503906 24.390625 70.296875 24.390625 71.164062 Z M 41.363281 66.882812 C 41.613281 66.882812 41.855469 66.929688 42.089844 67.027344 C 42.324219 67.125 42.527344 67.261719 42.707031 67.441406 C 42.886719 67.617188 43.023438 67.824219 43.121094 68.058594 C 43.21875 68.289062 43.265625 68.53125 43.265625 68.785156 C 43.265625 69.039062 43.21875 69.28125 43.121094 69.515625 C 43.023438 69.746094 42.886719 69.953125 42.707031 70.132812 C 42.527344 70.308594 42.324219 70.445312 42.089844 70.542969 C 41.855469 70.640625 41.613281 70.6875 41.363281 70.6875 C 41.230469 70.6875 41.117188 70.734375 41.023438 70.828125 C 40.933594 70.921875 40.886719 71.03125 40.886719 71.164062 L 40.886719 72.75 C 40.886719 73.03125 40.859375 73.308594 40.804688 73.585938 C 40.746094 73.863281 40.667969 74.128906 40.558594 74.386719 C 40.449219 74.648438 40.320312 74.894531 40.164062 75.128906 C 40.007812 75.363281 39.828125 75.578125 39.628906 75.777344 C 39.429688 75.976562 39.214844 76.152344 38.980469 76.308594 C 38.746094 76.464844 38.5 76.597656 38.242188 76.707031 C 37.980469 76.8125 37.714844 76.894531 37.4375 76.949219 C 37.164062 77.003906 36.882812 77.03125 36.605469 77.03125 C 36.351562 77.03125 36.109375 76.984375 35.875 76.886719 C 35.640625 76.792969 35.4375 76.652344 35.257812 76.476562 C 35.078125 76.296875 34.941406 76.089844 34.84375 75.859375 C 34.75 75.625 34.699219 75.382812 34.699219 75.128906 C 34.699219 74.878906 34.75 74.632812 34.84375 74.402344 C 34.941406 74.167969 35.078125 73.960938 35.257812 73.785156 C 35.4375 73.605469 35.640625 73.46875 35.875 73.371094 C 36.109375 73.273438 36.351562 73.226562 36.605469 73.226562 C 36.734375 73.226562 36.847656 73.179688 36.941406 73.085938 C 37.03125 72.992188 37.078125 72.882812 37.078125 72.75 L 37.078125 71.164062 C 37.078125 70.296875 37.320312 69.503906 37.800781 68.785156 C 37.320312 68.066406 37.078125 67.273438 37.078125 66.40625 L 37.078125 64.820312 C 37.078125 64.6875 37.03125 64.578125 36.941406 64.484375 C 36.847656 64.390625 36.734375 64.34375 36.605469 64.34375 C 36.351562 64.34375 36.109375 64.296875 35.875 64.199219 C 35.640625 64.101562 35.4375 63.964844 35.257812 63.785156 C 35.078125 63.609375 34.941406 63.402344 34.84375 63.167969 C 34.75 62.9375 34.699219 62.695312 34.699219 62.441406 C 34.699219 62.417969 34.703125 62.398438 34.703125 62.378906 C 36.34375 62.304688 37.964844 62.09375 39.566406 61.746094 C 39.988281 62.148438 40.3125 62.613281 40.542969 63.148438 C 40.769531 63.683594 40.886719 64.238281 40.886719 64.820312 L 40.886719 66.40625 C 40.886719 66.539062 40.933594 66.648438 41.023438 66.742188 C 41.117188 66.835938 41.230469 66.882812 41.363281 66.882812 Z M 41.363281 66.882812 " fill-opacity="1" fill-rule="nonzero"/></g></svg>